<?xml version="1.0" encoding="utf-8"?>
<!-- Generator: Adobe Illustrator 26.0.1, SVG Export Plug-In . SVG Version: 6.00 Build 0)  -->
<svg version="1.1" id="Слой_1" xmlns="http://www.w3.org/2000/svg" xmlns:xlink="http://www.w3.org/1999/xlink" x="0px" y="0px"
	 viewBox="0 0 18 18" style="enable-background:new 0 0 18 18;" xml:space="preserve">
<style type="text/css">
	.st0{fill-rule:evenodd;clip-rule:evenodd;}
</style>
<path class="st0" d="M17.7,4.8c-0.5-2.2-2.3-4-4.5-4.5c-1.5-0.4-3.1-0.4-4.6,0c-2.2,0.5-4,2.3-4.5,4.5C4,5.2,3.9,5.6,3.9,6
	C2.1,6.5,0.7,8,0.2,9.8c-0.3,1.3-0.3,2.7,0,4c0.5,1.9,2,3.5,3.9,3.9c1.3,0.3,2.7,0.3,4,0c1.9-0.4,3.3-1.8,3.9-3.7
	c0.4,0,0.8-0.1,1.2-0.2c2.2-0.5,4-2.3,4.5-4.5C18.1,7.9,18.1,6.3,17.7,4.8z M7.9,16.4c-1.1,0.3-2.3,0.3-3.4,0
	C3.1,16,2,14.9,1.6,13.5c-0.3-1.1-0.3-2.3,0-3.4C1.9,8.9,2.7,8,3.8,7.5C3.9,8,3.9,8.6,4,9.1c0,0.1,0,0.2,0.1,0.3
	c0.5,2.2,2.3,4,4.5,4.5c0.6,0.1,1.3,0.2,1.9,0.3C10,15.3,9.1,16.1,7.9,16.4z"/>
</svg>
