<?xml version="1.0" encoding="utf-8"?>
<!-- Generator: Adobe Illustrator 26.0.1, SVG Export Plug-In . SVG Version: 6.00 Build 0)  -->
<svg version="1.1" id="Слой_1" xmlns="http://www.w3.org/2000/svg" xmlns:xlink="http://www.w3.org/1999/xlink" x="0px" y="0px"
	 viewBox="0 0 94 105" style="enable-background:new 0 0 94 105;" xml:space="preserve">
<g>
	<path d="M35.7,45.6l-6.6-2.3l-2.3-6.6c-2.2-6.1-10.8-6.1-13,0l-2.3,6.6L5,45.6c-6.1,2.2-6.1,10.8,0,13l6.6,2.3l2.3,6.6
		c2.2,6.1,10.8,6.1,13,0l2.3-6.6l6.6-2.3C41.9,56.5,41.9,47.8,35.7,45.6z M26,53.6c-2,0.7-3.5,2.2-4.2,4.2l-1.5,4.1l-1.5-4.1
		c-0.7-2-2.2-3.5-4.2-4.2l-4.1-1.5l4.1-1.5c2-0.7,3.5-2.2,4.2-4.2l1.5-4.1l1.5,4.1c0.7,2,2.2,3.5,4.2,4.2l4.1,1.5L26,53.6z"/>
	<path d="M67.9,80.2l-5.6-1.9l-2-5.4c-2.1-5.7-10.3-5.7-12.4,0l-2,5.4l-5.6,1.9c-5.9,2-5.9,10.2,0,12.3l5.6,1.9l2,5.4
		c2.1,5.7,10.3,5.7,12.4,0l2-5.4l5.6-1.9C73.8,90.5,73.8,82.3,67.9,80.2z M59,87.1c-1.8,0.6-3.3,2-4,3.9l-0.9,2.5L53.2,91
		c-0.7-1.9-2.2-3.3-4-3.9l-2.1-0.7l2.1-0.7c1.8-0.6,3.3-2,4-3.9l0.9-2.5l0.9,2.5c0.7,1.9,2.2,3.3,4,3.9l2.1,0.7L59,87.1z"/>
	<path d="M88.3,20.8l-11.9-4.1L72.2,5.3c-2.5-6.8-12.4-6.8-14.9,0l-4.2,11.4l-11.9,4.1c-7.1,2.4-7.1,12.3,0,14.7l11.9,4.1L57.3,51
		c2.5,6.8,12.4,6.8,14.9,0l4.2-11.4l11.9-4.1C95.4,33.1,95.4,23.2,88.3,20.8z M73.8,32c-2.2,0.8-4,2.5-4.8,4.7l-4.2,11.4l-4.2-11.4
		c-0.8-2.2-2.6-3.9-4.8-4.7l-11.3-3.9l11.3-3.9c2.2-0.8,4-2.5,4.8-4.7l4.2-11.4l4.2,11.4c0.8,2.2,2.6,3.9,4.8,4.7l11.3,3.9L73.8,32z
		"/>
</g>
</svg>
