<?xml version="1.0" encoding="utf-8"?>
<!-- Generator: Adobe Illustrator 26.0.1, SVG Export Plug-In . SVG Version: 6.00 Build 0)  -->
<svg version="1.1" id="Слой_1" xmlns="http://www.w3.org/2000/svg" xmlns:xlink="http://www.w3.org/1999/xlink" x="0px" y="0px"
	 viewBox="0 0 350 176" style="enable-background:new 0 0 350 176;" xml:space="preserve">
<style type="text/css">
	.sst2{fill:#C9886B;}
	.sst3{fill:#FFFFFF;}
	.sst4{fill:#70BA6E;stroke:#FFFFFF;stroke-width:2;}
</style>
<g>
	<g>
		<path class="sst2" d="M121.6,174.4l-12.4-45.8l-9.1,33.9c-1.9,7-8.3,11.9-15.5,11.9H67.7L46.4,92.8c-1.3-4.9-0.2-9.9,2.8-13.9
			c3.1-4,7.7-6.2,12.7-6.2h13.2l9.5,47.3l8.7-35.1c1.8-7.2,8.2-12.2,15.6-12.2h0.9c7.4,0,13.8,5,15.6,12.2L134,120l6.9-34.4
			c1.5-7.5,8.1-12.9,15.8-12.9h20.8L154,162.4c-1.8,7.1-8.2,12-15.5,12H121.6z"/>
		<path class="sst3" d="M174.8,74.6L152,161.9c-1.6,6.2-7.2,10.5-13.6,10.5h-15.3l-13.9-51.5L98.2,162c-1.7,6.1-7.2,10.4-13.6,10.4
			H69.2L48.3,92.3c-1.1-4.2-0.2-8.7,2.5-12.2c2.7-3.5,6.7-5.5,11.1-5.5h11.5l10.9,54.5l10.8-43.8c1.6-6.3,7.2-10.7,13.7-10.7h0.9
			c6.5,0,12.1,4.4,13.7,10.7l10.8,43.8l8.6-43.2c1.3-6.6,7.1-11.3,13.8-11.3H174.8 M180,70.6h-5.2h-18.2c-8.6,0-16,6.1-17.7,14.5
			l-5.1,25.7l-6.5-26.4c-2-8.1-9.2-13.7-17.5-13.7h-0.9c-8.3,0-15.5,5.6-17.5,13.7l-6.5,26.4l-7.4-37l-0.6-3.2h-3.3H61.9
			c-5.6,0-10.9,2.6-14.3,7c-3.4,4.5-4.6,10.2-3.2,15.6l20.9,80.1l0.8,3h3.1h15.4c8.1,0,15.3-5.5,17.4-13.4l7.2-26.8l10,37.2l0.8,3
			h3.1h15.3c8.2,0,15.4-5.6,17.5-13.5l22.8-87.2L180,70.6L180,70.6z"/>
	</g>
	<g>
		<path class="sst2" d="M176.6,174.4V89c0-9,7.3-16.3,16.3-16.3h16.3V158c0,9-7.3,16.3-16.3,16.3H176.6z"/>
		<path class="sst3" d="M207.3,74.6V158c0,7.9-6.4,14.3-14.3,14.3h-14.3V89c0-7.9,6.4-14.3,14.3-14.3H207.3 M211.3,70.6h-4h-14.3
			c-10.1,0-18.3,8.2-18.3,18.3v83.4v4h4h14.3c10.1,0,18.3-8.2,18.3-18.3V74.6V70.6L211.3,70.6z"/>
	</g>
	<g>
		<path class="sst2" d="M286.7,174.4c-5,0-9.8-2.4-12.7-6.5l-28.4-39.1v29.8c0,8.7-7.1,15.7-15.7,15.7h-15.7v-86
			c0-8.7,7.1-15.7,15.7-15.7h2c5,0,9.8,2.4,12.7,6.5l28.2,38.6V88.4c0-8.7,7.1-15.7,15.7-15.7h15.7v86c0,8.7-7.1,15.7-15.7,15.7
			H286.7z"/>
		<path class="sst3" d="M302.2,74.6v84c0,7.6-6.2,13.7-13.7,13.7h-1.8c-4.4,0-8.5-2.1-11.1-5.7l-32-44.1v36c0,7.6-6.2,13.7-13.7,13.7
			h-13.7v-84c0-7.6,6.2-13.7,13.7-13.7h2c4.4,0,8.5,2.1,11.1,5.6l31.8,43.6V88.4c0-7.6,6.2-13.7,13.7-13.7H302.2 M306.2,70.6h-4
			h-13.7c-9.8,0-17.7,8-17.7,17.7v23.2l-24.6-33.7c-3.3-4.6-8.7-7.3-14.3-7.3h-2c-9.8,0-17.7,8-17.7,17.7v84v4h4h13.7
			c9.8,0,17.7-8,17.7-17.7V135l24.8,34.1c3.3,4.6,8.7,7.3,14.3,7.3h1.8c9.8,0,17.7-8,17.7-17.7v-84V70.6L306.2,70.6z"/>
	</g>
</g>
<g>
	<path class="sst2" d="M59.9,43c0-10.2-8.3-18.5-18.5-18.5v-1c10.2,0,18.5-8.3,18.5-18.5h1c0,10.2,8.3,18.5,18.5,18.5v1
		c-10.2,0-18.5,8.3-18.5,18.5H59.9z"/>
	<path class="sst3" d="M60.4,5c0,10.5,8.5,19,19,19c-10.5,0-19,8.5-19,19c0-10.5-8.5-19-19-19C51.9,24,60.4,15.5,60.4,5 M61.4,5h-2
		c0,9.9-8.1,18-18,18v2c9.9,0,18,8.1,18,18h2c0-9.9,8.1-18,18-18v-2C69.5,23,61.4,15,61.4,5L61.4,5z"/>
</g>
<g>
	<path class="sst2" d="M330.5,164.4c0-10.2-8.3-18.5-18.5-18.5v-1c10.2,0,18.5-8.3,18.5-18.5h1c0,10.2,8.3,18.5,18.5,18.5v1
		c-10.2,0-18.5,8.3-18.5,18.5H330.5z"/>
	<path class="sst3" d="M331,126.4c0,10.5,8.5,19,19,19c-10.5,0-19,8.5-19,19c0-10.5-8.5-19-19-19C322.5,145.4,331,136.9,331,126.4
		 M332,126.4h-2c0,9.9-8.1,18-18,18v2c9.9,0,18,8.1,18,18h2c0-9.9,8.1-18,18-18v-2C340.1,144.4,332,136.3,332,126.4L332,126.4z"/>
</g>
<g>
	<path class="sst2" d="M290.5,46.6c0-6-4.9-10.9-10.9-10.9v-0.8c6,0,10.9-4.9,10.9-10.9h0.8c0,6,4.9,10.9,10.9,10.9v0.8
		c-6,0-10.9,4.9-10.9,10.9H290.5z"/>
	<path class="sst3" d="M290.9,24c0,6.2,5.1,11.3,11.3,11.3c-6.2,0-11.3,5.1-11.3,11.3c0-6.2-5.1-11.3-11.3-11.3
		C285.8,35.3,290.9,30.3,290.9,24 M291.6,24h-1.5c0,5.8-4.7,10.5-10.5,10.5v1.5c5.8,0,10.5,4.7,10.5,10.5h1.5
		c0-5.8,4.7-10.5,10.5-10.5v-1.5C296.4,34.6,291.6,29.8,291.6,24L291.6,24z"/>
</g>
<g>
	<path class="sst2" d="M30.9,164.4c0-6-4.9-10.9-10.9-10.9v-0.8c6,0,10.9-4.9,10.9-10.9h0.8c0,6,4.9,10.9,10.9,10.9v0.8
		c-6,0-10.9,4.9-10.9,10.9H30.9z"/>
	<path class="sst3" d="M31.3,141.8c0,6.2,5.1,11.3,11.3,11.3c-6.2,0-11.3,5.1-11.3,11.3c0-6.2-5.1-11.3-11.3-11.3
		C26.2,153.1,31.3,148,31.3,141.8 M32,141.8h-1.5c0,5.8-4.7,10.5-10.5,10.5v1.5c5.8,0,10.5,4.7,10.5,10.5H32
		c0-5.8,4.7-10.5,10.5-10.5v-1.5C36.7,152.3,32,147.6,32,141.8L32,141.8z"/>
</g>
<g>
	<path class="sst2" d="M28.4,70.4c0-4.7-3.8-8.4-8.4-8.4v-0.5c4.7,0,8.4-3.8,8.4-8.4h0.5c0,4.7,3.8,8.4,8.4,8.4V62
		c-4.7,0-8.4,3.8-8.4,8.4H28.4z"/>
	<path class="sst3" d="M28.7,53c0,4.8,3.9,8.7,8.7,8.7c-4.8,0-8.7,3.9-8.7,8.7c0-4.8-3.9-8.7-8.7-8.7C24.8,61.7,28.7,57.8,28.7,53
		 M29.2,53h-1c0,4.5-3.7,8.2-8.2,8.2v1c4.5,0,8.2,3.7,8.2,8.2h1c0-4.5,3.7-8.2,8.2-8.2v-1C32.9,61.2,29.2,57.5,29.2,53L29.2,53z"/>
</g>
<g>
	<path class="sst2" d="M330.8,93.5c0-4.7-3.8-8.4-8.4-8.4v-0.5c4.7,0,8.4-3.8,8.4-8.4h0.5c0,4.7,3.8,8.4,8.4,8.4v0.5
		c-4.7,0-8.4,3.8-8.4,8.4H330.8z"/>
	<path class="sst3" d="M331,76.1c0,4.8,3.9,8.7,8.7,8.7c-4.8,0-8.7,3.9-8.7,8.7c0-4.8-3.9-8.7-8.7-8.7C327.1,84.8,331,80.9,331,76.1
		 M331.5,76.1h-1c0,4.5-3.7,8.2-8.2,8.2v1c4.5,0,8.2,3.7,8.2,8.2h1c0-4.5,3.7-8.2,8.2-8.2v-1C335.2,84.3,331.5,80.6,331.5,76.1
		L331.5,76.1z"/>
</g>
<g>
	<path class="sst4" d="M159.3,30.2c0.6-0.5,1.2-1.1,1.8-1.8c2.2-2.5,3.4-5.5,3.4-8.9c0-4.7-1.7-8.4-5.1-11.2c-3.2-2.6-7.6-4-12.9-4
		h-15.8c-5,0-9.1,4.1-9.1,9.1v46.6h25.3c6,0,10.8-1.5,14.4-4.5c3.7-3.1,5.6-7.3,5.6-12.5c0-4-1.4-7.4-4.1-10.2
		C161.8,31.7,160.6,30.9,159.3,30.2z M151.1,42.2c0,2.6-0.8,5-6.9,5h-1.3c-3.1,0-5.6-2.5-5.6-5.6v-4.1h6.7
		C151.1,37.4,151.1,40.6,151.1,42.2z M137.2,21.3v-4.1h6.5c1.9,0,3.3,0.4,4.2,1.1c0.5,0.4,1.1,1.1,1.1,2.8c0,1.4-0.4,2.3-1.3,3
		c-1.1,0.8-2.8,1.3-5,1.3h-1.4C139.1,25.4,137.2,23.6,137.2,21.3z"/>
	<path class="sst4" d="M168,12.1v47.9h7.8c4.3,0,7.8-3.5,7.8-7.8V4.3h-7.8C171.5,4.3,168,7.8,168,12.1z"/>
	<path class="sst4" d="M211,28v6.4c0,3.5,2.9,6.4,6.4,6.4h4.4c-0.4,1.6-1.1,3-2.4,4.1c-1.7,1.5-4,2.3-6.9,2.3c-3.5,0-6.1-1.2-8.1-3.8
		c-2.1-2.7-3.2-6.5-3.2-11.4c0-4.8,1-8.5,3-11.1c1.9-2.4,4.5-3.6,7.9-3.6c2.3,0,4.3,0.6,5.9,1.8c1.1,0.8,2,1.9,2.6,3.1
		c1.1,2.2,3.3,3.6,5.7,3.6h2.9c2.2,0,4.2-1.1,5.4-2.9c1.2-1.9,1.3-4.1,0.4-6.1c-1.4-3-3.6-5.7-6.4-7.9c-4.5-3.5-10.1-5.3-16.5-5.3
		c-8.2,0-14.7,2.6-19.5,7.8c-4.8,5.1-7.2,12.1-7.2,20.8c0,8.8,2.4,15.9,7.2,21.1c4.8,5.2,11.4,7.8,19.7,7.8c7.7,0,13.9-2.2,18.3-6.6
		c4.4-4.4,6.7-10.5,6.7-18.1V28H211z"/>
</g>
</svg>
