<?xml version="1.0" encoding="utf-8"?>
<!-- Generator: Adobe Illustrator 26.0.1, SVG Export Plug-In . SVG Version: 6.00 Build 0)  -->
<svg version="1.1" id="Слой_1" xmlns="http://www.w3.org/2000/svg" xmlns:xlink="http://www.w3.org/1999/xlink" x="0px" y="0px"
	 viewBox="0 0 552 400" style="enable-background:new 0 0 552 400;" xml:space="preserve">
<style type="text/css">
	.sstt8{fill:#FFDA00;}
	.sstt9{fill:#FFF2D7;}
	.sstt10{fill:#FF3C00;}
	.sstt11{fill:#C000FF;}
</style>
<g>
	<g>
		<g>
			<g>
				<g>
					<polygon class="sstt8" points="206.7,95.8 224.6,32.5 292.1,89 376,27.7 388.4,89 493.6,55.2 477.8,128.2 543.2,155.7 486.1,188 
						539.7,218.3 473,257.5 494.1,300 442.7,298.8 472.3,375.9 369.1,344.2 343,393.7 292.1,340.1 240.5,380 214.3,336.7 
						151.1,376.4 142.1,331.5 77.2,347.2 104.2,287.3 46.2,287.3 85.3,249.6 10,224.5 97.3,179.8 51.3,140.6 129,137.8 118,80.7 
											"/>
					<path d="M343.8,400l-52.2-55l-52.2,40.4l-26.3-43.6l-64.6,40.6l-9.3-46.4l-68.5,16.6L98.5,291H37.1l41.2-39.8L0.5,225.2
						L90.8,179l-49.1-41.8l82.9-2.9l-11.2-58.1l90.7,15.5l18.5-65.6l69.6,58.2l86.3-62.9l12.7,62.8l107.4-34.4L482.1,126l69.4,29.2
						l-58,32.8l53.6,30.2L477.8,259l22.2,44.9l-51.9-1.3l30.3,79l-107.5-33L343.8,400z M292.4,335.1l49.7,52.4l25.2-47.7l98.9,30.3
						L437.3,295l50.7,1.2l-19.9-40.1l64.2-37.7L478.6,188l56.3-31.9l-61.3-25.8l15.1-69.7l-103.1,33l-12.1-59.6l-81.6,59.5L226.6,39
						l-17.2,61l-86.8-14.8l10.8,56.1l-72.6,2.6l43.1,36.6l-84.5,43.2L92.2,248l-36.8,35.6h54.5l-26.2,58.3L145,327l8.7,43.4
						l61.9-38.9l25.9,43L292.4,335.1z"/>
				</g>
			</g>
		</g>
		<g>
			<g>
				<g>
					<polygon class="sstt9" points="206.7,74.5 224.6,11.2 292.1,67.6 376,6.4 388.4,67.6 493.6,33.9 477.8,106.8 543.2,134.3 
						486.1,166.7 539.7,196.9 473,236.2 494.1,278.7 442.7,277.4 472.3,354.5 369.1,322.8 343,372.4 292.1,318.7 240.5,358.6 
						214.3,315.3 160.6,352.4 157.9,306.3 77.2,325.9 104.2,265.9 46.2,265.9 85.3,228.2 10,203.1 97.3,158.4 51.3,119.2 129,116.4 
						118,59.3 					"/>
					<path d="M343.8,378.6l-52.2-55l-52.2,40.4l-26.3-43.5l-55.8,38.6l-2.9-48.2l-83.7,20.3l27.7-61.6H37.1l41.2-39.8L0.5,203.9
						l90.3-46.2l-49.1-41.8l82.9-2.9l-11.2-58.1l90.7,15.5l18.5-65.6l69.6,58.2L378.5,0l12.7,62.8l107.4-34.4l-16.5,76.2l69.4,29.2
						l-58,32.8l53.6,30.2l-69.3,40.7l22.2,44.9l-51.9-1.3l30.3,79l-107.5-33L343.8,378.6z M292.4,313.8l49.7,52.4l25.2-47.7
						l98.9,30.3l-28.8-75.1l50.7,1.2l-19.9-40.1l64.2-37.7l-53.8-30.3l56.3-31.9L473.6,109l15.1-69.7l-103.1,33l-12.1-59.6
						l-81.6,59.5l-65.3-54.6l-17.2,61l-86.8-14.8l10.8,56.1l-72.6,2.6l43.1,36.6l-84.5,43.2l72.7,24.2l-36.8,35.6h54.5l-26.2,58.3
						l77.7-18.8l2.6,44l51.5-35.6l26,43.1L292.4,313.8z"/>
				</g>
			</g>
		</g>
	</g>
	<g>
		<g>
			<g>
				<g>
					<path d="M162.1,296.6l13.4-125.3c0,0,0,0,0,0c5.5-0.2,10.7-0.8,15.6-1.7c4.9-0.9,9.7-1.5,14.6-1.9c0,0.1-0.2,1.3-0.5,3.6
						c-0.4,2.3-0.8,5.3-1.4,9c-0.6,3.7-1.2,7.9-1.9,12.5c-0.7,4.6-1.7,11-3.1,19.1c-1.4,8.1-3.1,19.4-5.4,33.7c0,0,0,0,0,0h2.6
						c0,0,0,0,0,0c3.1-10.8,5.6-19.7,7.6-26.6c2-6.9,3.6-12.5,4.9-16.8c1.2-4.3,2.4-8.4,3.5-12.4c1.1-4,2.2-7.7,3.2-11.1
						c1-3.4,1.8-6.3,2.4-8.6c0,0,0,0,0,0l1.6,0c2.1,0,4.3-0.1,6.4-0.4c2.2-0.2,4.2-0.5,6.2-0.8c1.9-0.3,4-0.7,6.1-1.1c0,0,0,0,0,0
						c-0.2,1.1-0.5,3.2-0.8,6.5c-0.3,3.3-0.7,7.3-1.1,11.9c-0.5,4.6-0.9,9.8-1.4,15.4c-0.5,5.6-0.9,11.1-1.4,16.4
						c-0.5,5.4-0.9,10.4-1.3,15.3c-0.4,4.8-0.8,8.9-1.1,12.4c0,0,0,0,0,0l3.2,0c0,0,0,0,0,0l16.8-75.9c0,0,0,0,0,0
						c4-0.6,7.9-1.1,11.8-1.6c3.4-0.5,6.9-0.9,10.6-1.4c3.6-0.5,6.9-1,9.7-1.6c0,0,0,0,0,0c-1.8,4.9-3.5,10.4-5.3,16.5
						c-1.8,6.1-3.6,12.4-5.5,19.1c-1.9,6.7-3.7,13.5-5.4,20.3c-1.7,6.8-3.4,13.4-5,19.8c-3.8,15.1-7.4,30.5-10.9,46.4c0,0,0,0,0,0
						l-39.9,6.7c0,0,0,0,0,0l7.8-68.1c0,0,0,0,0,0h-1.3c-0.5,0-1,0.3-1.1,0.8l-17.2,63.2c0,0,0,0,0,0L162.1,296.6
						C162.1,296.6,162.1,296.6,162.1,296.6z"/>
					<path d="M275.6,292.8c-3.1,0.3-6.2,0.6-9.5,1.1c-3.3,0.4-6.3,0.8-8.9,1.1c-2.6,0.4-4.1,0.6-4.3,0.7c1.4-5.1,2.8-10.7,4.2-16.9
						c1.4-6.2,2.9-12.6,4.3-19.4c1.5-6.8,2.9-13.6,4.2-20.6c1.4-6.9,2.7-13.6,4-20.1c2.9-15.1,5.8-30.5,8.6-46.4c0,0,0,0,0,0
						l27.5-4.4c0,0,0,0,0,0c-3.1,15.8-6.1,31.2-9.2,46.4c-1.3,6.5-2.6,13.2-4,20.1c-1.4,6.9-2.6,13.8-3.9,20.6
						c-1.2,6.8-2.5,13.4-3.7,19.9c-1.2,6.4-2.3,12.2-3.3,17.4C280.7,292.4,278.7,292.5,275.6,292.8z"/>
					<path d="M283.2,296.8c3.3-16.6,6.5-32.8,9.5-48.5c1.2-6.6,2.4-13.5,3.8-20.7c1.4-7.2,2.6-14.4,3.8-21.4
						c1.2-7,2.3-13.8,3.3-20.3c1-6.5,1.8-12.5,2.4-17.9c0,0,0,0,0,0c3.6-0.2,7.2-0.5,10.6-0.7c3.1-0.2,6.2-0.4,9.4-0.6
						c3.2-0.2,6-0.4,8.5-0.6c1.5,9.1,2.9,17.7,4.1,25.9c0.6,3.5,1.2,7.2,1.9,11c0.6,3.8,1.3,7.5,1.9,11c0.6,3.5,1.2,6.9,1.8,10.1
						c0.6,3.2,1.2,6.1,1.8,8.6c0.5-2.5,1-5.3,1.6-8.6c0.6-3.2,1.2-6.6,1.9-10.2c0.7-3.6,1.4-7.3,2.2-11c0.8-3.8,1.5-7.4,2.2-10.9
						c1.8-8.2,3.6-16.8,5.5-25.8l21.5-2.6c-4,17.6-7.5,34.4-10.6,50.1c-1.4,6.8-2.8,13.7-4.1,20.6c-1.4,6.9-2.6,13.7-3.8,20.1
						c-1.2,6.5-2.2,12.4-3,17.9c-0.8,5.5-1.5,10.1-1.9,13.9c-0.4,0-1.7,0.3-4.1,0.8c-2.4,0.5-5.2,1.1-8.3,1.9
						c-3.1,0.7-6.2,1.4-9.4,2.2c-3.1,0.8-5.4,1.4-7,1.9c-0.8-9.5-1.7-18.6-2.6-27.2c-0.4-3.6-0.8-7.4-1.2-11.3
						c-0.5-3.9-0.9-7.6-1.3-11.1c-0.4-3.5-0.8-6.9-1.2-10c-0.4-3.1-0.8-5.7-1.1-7.9c-0.4,2.1-0.8,4.7-1.4,7.8
						c-0.6,3.1-1.2,6.3-1.8,9.8c-0.6,3.5-1.2,7.1-1.8,10.8c-0.6,3.7-1.2,7.3-1.9,10.9c-1.5,8.4-3.2,17.1-4.9,26.1L283.2,296.8z"/>
					<path d="M390.9,288.5c-1,2.2-2.4,4.2-4.3,5.9c-1.9,1.7-4.2,3.1-7.1,4.1c-2.8,1-6.1,1.5-9.7,1.5c-2.5,0-4.7-0.5-6.7-1.4
						c-2-0.9-3.6-2.2-4.9-3.8c-1.2-1.6-2.2-3.4-2.9-5.4c-0.7-2-1.1-4-1.1-6c0-2.2,0.4-4.4,1.1-6.4c0.7-2.1,1.8-3.9,3.3-5.5
						c1.5-1.6,3.3-2.9,5.5-4c2.2-1.1,4.8-1.6,7.9-1.6c6.8,0,11.9,1.6,15.4,4.9c3.4,3.2,5.1,6.9,5.1,11
						C392.4,284,391.9,286.3,390.9,288.5z M380.4,254.4c-3.4,0.2-6.8,0.5-10.2,0.7c0,0,0,0,0,0c3.6-14.5,7.2-28.9,10.7-43.2
						c3.5-14.4,7.1-28.8,10.9-43.2c2.2-0.4,4.8-0.7,7.7-1.1c2.9-0.4,5.8-0.8,8.7-1.2c2.9-0.5,5.8-0.9,8.6-1.2c2.8-0.4,5.1-0.7,7-1.1
						c-6.4,14.8-12.2,29.7-17.4,44.7c-5.2,15-10.4,30.1-15.6,45.3c0,0,0,0,0,0C387.3,254.1,383.8,254.2,380.4,254.4z"/>
				</g>
			</g>
			<g>
				<g>
					<path class="sstt10" d="M154.8,289.3L168.2,164c5.5-0.2,10.7-0.8,15.6-1.7c4.9-0.9,9.7-1.5,14.6-1.9c0,0.1-0.2,1.3-0.5,3.6
						c-0.4,2.3-0.8,5.3-1.4,9c-0.6,3.7-1.2,7.9-1.9,12.5c-0.7,4.6-1.7,11-3.1,19.1c-1.4,8.1-3.1,19.4-5.4,33.7l2.6,0
						c3.1-10.8,5.6-19.7,7.6-26.6c2-6.9,3.6-12.5,4.9-16.8c1.2-4.3,2.4-8.4,3.5-12.4c1.1-4,2.2-7.7,3.2-11.1c1-3.4,1.8-6.3,2.4-8.6
						l1.6,0c2.1,0,4.3-0.1,6.4-0.4c2.2-0.2,4.2-0.5,6.2-0.8c1.9-0.3,4-0.7,6.1-1.1c0,0,0,0,0,0c-0.2,1.1-0.5,3.2-0.8,6.5
						c-0.3,3.3-0.7,7.3-1.1,11.9c-0.5,4.6-0.9,9.8-1.4,15.4c-0.5,5.6-0.9,11.1-1.4,16.4c-0.5,5.4-0.9,10.4-1.3,15.3
						c-0.4,4.8-0.8,8.9-1.1,12.4l3.2,0l16.8-75.9c4-0.6,7.9-1.1,11.8-1.6c3.4-0.5,6.9-0.9,10.6-1.4c3.6-0.5,6.9-1,9.7-1.6
						c-1.8,4.9-3.5,10.4-5.3,16.5c-1.8,6.1-3.6,12.4-5.5,19.1c-1.9,6.7-3.7,13.5-5.4,20.3c-1.7,6.8-3.4,13.4-5,19.8
						c-3.8,15.1-7.4,30.5-10.9,46.4l-39.9,6.7l7.8-68.1c0,0-1.3,0-1.3,0c-0.5,0-1,0.3-1.1,0.8l-17.2,63.2L154.8,289.3z"/>
					<path class="sstt10" d="M268.2,285.5c-3.1,0.3-6.2,0.6-9.5,1.1c-3.3,0.4-6.3,0.8-8.9,1.1c-2.6,0.4-4.1,0.6-4.3,0.7
						c1.4-5.1,2.8-10.7,4.2-16.9c1.4-6.2,2.9-12.6,4.3-19.4c1.5-6.8,2.9-13.6,4.2-20.6c1.4-6.9,2.7-13.6,4-20.1
						c2.9-15.1,5.8-30.5,8.6-46.4l27.5-4.4c-3.1,15.8-6.1,31.2-9.2,46.4c-1.3,6.5-2.6,13.2-4,20.1c-1.4,6.9-2.6,13.8-3.9,20.6
						c-1.2,6.8-2.5,13.4-3.7,19.9c-1.2,6.4-2.3,12.2-3.3,17.4C273.4,285,271.3,285.2,268.2,285.5z"/>
					<path class="sstt10" d="M275.8,289.4C275.8,289.4,275.8,289.4,275.8,289.4c3.3-16.6,6.5-32.8,9.5-48.5c1.2-6.6,2.4-13.5,3.8-20.7
						c1.4-7.2,2.6-14.4,3.8-21.4c1.2-7,2.3-13.8,3.3-20.3c1-6.5,1.8-12.5,2.4-17.9c0,0,0,0,0,0c3.6-0.2,7.2-0.5,10.6-0.7
						c3.1-0.2,6.2-0.4,9.4-0.6c3.2-0.2,6-0.4,8.5-0.6c1.5,9.1,2.9,17.7,4.1,25.9c0.6,3.5,1.2,7.2,1.9,11c0.6,3.8,1.3,7.5,1.9,11
						c0.6,3.5,1.2,6.9,1.8,10.1c0.6,3.2,1.2,6.1,1.8,8.6c0.5-2.5,1-5.3,1.6-8.6c0.6-3.2,1.2-6.6,1.9-10.2c0.7-3.6,1.4-7.3,2.2-11
						c0.8-3.8,1.5-7.4,2.2-10.9c1.8-8.2,3.6-16.8,5.5-25.8c0,0,0,0,0,0l21.5-2.6c0,0,0,0,0,0c-4,17.6-7.5,34.4-10.6,50.1
						c-1.4,6.8-2.8,13.7-4.1,20.6c-1.4,6.9-2.6,13.7-3.8,20.1c-1.2,6.5-2.2,12.4-3,17.9c-0.8,5.5-1.5,10.1-1.9,13.9
						c-0.4,0-1.7,0.3-4.1,0.8c-2.4,0.5-5.2,1.1-8.3,1.9c-3.1,0.7-6.2,1.4-9.4,2.2c-3.1,0.8-5.4,1.4-7,1.9
						c-0.8-9.5-1.7-18.6-2.6-27.2c-0.4-3.6-0.8-7.4-1.2-11.3c-0.5-3.9-0.9-7.6-1.3-11.1c-0.4-3.5-0.8-6.9-1.2-10
						c-0.4-3.1-0.8-5.7-1.1-7.9c0,0,0,0,0,0c-0.4,2.1-0.8,4.7-1.4,7.8c-0.6,3.1-1.2,6.3-1.8,9.8c-0.6,3.5-1.2,7.1-1.8,10.8
						c-0.6,3.7-1.2,7.3-1.9,10.9c-1.5,8.4-3.2,17.1-4.9,26.1c0,0,0,0,0,0L275.8,289.4z"/>
					<path class="sstt10" d="M383.6,281.1c-1,2.2-2.4,4.2-4.3,5.9c-1.9,1.7-4.2,3.1-7.1,4.1c-2.8,1-6.1,1.5-9.7,1.5
						c-2.5,0-4.7-0.5-6.7-1.4c-2-0.9-3.6-2.2-4.9-3.8c-1.2-1.6-2.2-3.4-2.9-5.4c-0.7-2-1.1-4-1.1-6c0-2.2,0.4-4.4,1.1-6.4
						c0.7-2.1,1.8-3.9,3.3-5.5c1.5-1.6,3.3-2.9,5.5-4c2.2-1.1,4.8-1.6,7.9-1.6c6.8,0,11.9,1.6,15.4,4.9c3.4,3.2,5.1,6.9,5.1,11
						C385.1,276.7,384.6,278.9,383.6,281.1z M373.1,247.1c-3.4,0.2-6.8,0.5-10.2,0.7c0,0,0,0,0,0c3.6-14.5,7.2-28.9,10.7-43.2
						c3.5-14.4,7.1-28.8,10.9-43.2c2.2-0.4,4.8-0.7,7.7-1.1c2.9-0.4,5.8-0.8,8.7-1.2c2.9-0.5,5.8-0.9,8.6-1.2c2.8-0.4,5.1-0.7,7-1.1
						c0,0,0,0,0,0c-6.4,14.8-12.1,29.7-17.4,44.7c-5.2,15-10.4,30.1-15.6,45.3c0,0,0,0,0,0C379.9,246.7,376.5,246.8,373.1,247.1z"/>
				</g>
			</g>
		</g>
		<path d="M353.4,89.8c-0.6-1.6-1.4-3-2.4-4.1c-1-1.1-2.2-2-3.6-2.6c-1.4-0.6-2.8-0.9-4.3-0.9c-4.9,0-9.4,1.4-13.4,4.2
			c-4.1,2.8-7.6,6.5-10.5,11.1c-2.2,3.4-4,7.2-5.5,11.2c0.1-0.4,0.2-0.8,0.2-1.2c1.6-8.1,3.3-16.4,4.9-24.8L304.1,85
			c-0.5,2.7-1,5.4-1.4,8c-0.1-0.3-0.1-0.5-0.2-0.8c-0.5-2.1-1.4-4-2.5-5.6c-1.2-1.6-2.8-2.9-4.7-3.8c-1.9-0.9-4.3-1.4-7.1-1.4
			c-1.6,0-3.4,0.2-5.2,0.5c-1.9,0.3-3.7,0.7-5.4,1.1c-1.5,0.4-3.1,0.8-4.6,1.2c0.2-0.9,0.5-1.8,0.8-2.7L243.8,84l-12.4,67l28.3-4.4
			c-0.3,1.5-0.6,2.9-1,4.4l16.3-3.2c0.4-2.5,0.8-5,1.2-7.5c0.3-2.1,0.7-4.5,1.1-7c0.4-2.5,0.9-4.8,1.4-7h1c3,0,5.9-0.8,8.7-2.3
			c2.8-1.5,5.3-3.5,7.4-6.1c0.9-1,1.6-2.1,2.3-3.2c-0.4,1.9-0.7,3.8-1.1,5.7c-0.7,3.7-1.5,7.4-2.3,11c-0.8,3.6-1.6,7.1-2.3,10.4
			c-0.8,3.3-1.5,6.3-2.3,9c0.1-0.1,0.9-0.2,2.3-0.4c1.4-0.2,3-0.4,4.8-0.6c1.8-0.2,3.5-0.4,5.1-0.6c1.6-0.2,2.7-0.2,3.3-0.2
			c0.5-2.8,1.1-5.9,1.7-9.3c0.7-3.4,1.3-7,2-10.6c0.1-0.3,0.1-0.6,0.2-1c0,0.7,0,1.4,0,2.1c0,3.5,0.4,6.5,1.1,9.1
			c0.7,2.6,1.7,4.7,2.9,6.5c1.2,1.8,2.6,3.1,4.2,4c1.6,0.9,3.4,1.3,5.3,1.3c1.9,0,4-0.4,6-1.2c2.1-0.8,4.1-2.1,6.2-3.8
			c2-1.7,4-3.9,5.8-6.4c1.9-2.5,3.5-5.5,5-9l-10.7-4.3c-0.3,1.1-0.7,2.1-1.3,3.2c-0.6,1.1-1.3,2-2.1,2.9c-0.8,0.8-1.6,1.5-2.5,2.1
			c-0.9,0.5-1.7,0.8-2.4,0.8c-0.9,0-1.6-0.4-2.1-1.2c-0.5-0.8-0.8-2.2-0.8-4.2c0-1.3,0.2-3,0.7-5.1c0.5-2.1,1.1-4.3,1.8-6.6
			c0.8-2.3,1.6-4.6,2.6-6.9c1-2.3,2-4.4,3.1-6.2c1.1-1.9,2.2-3.4,3.3-4.5c1.1-1.2,2.2-1.7,3.2-1.7c1,0,1.9,0.8,2.6,2.4l12.4-3.3
			c0.1-0.4,0.1-0.9,0.1-1.3c0-0.4,0-0.8,0-1.2C354.3,93.2,354,91.4,353.4,89.8z M268.5,104.3c-0.7,3.6-1.4,7.4-2.2,11.1
			c-0.8,3.8-1.5,7.4-2.2,10.7c-0.7,3.1-1.3,6.3-2,9.5l-13.1,2.1l3.2-17.3c1.9-0.1,3.7-0.1,5.4-0.2c1.4-0.1,2.9-0.1,4.3-0.1
			c1.4,0,2.4-0.1,3.1-0.1c0.3-1.8,0.6-3.5,0.8-5.2c0.2-1.7,0.5-3.4,0.7-5.2c-0.7,0.1-1.8,0.1-3.2,0.1c-1.4,0-2.9,0-4.2,0.1
			c-1.7,0.1-3.5,0.2-5.5,0.3l3.3-16.9c1,0,2.2,0,3.5,0c1.4,0,2.7,0,4,0c1.3,0,2.6-0.1,3.7-0.1c1,0,1.8-0.1,2.5-0.1
			c-0.1,0.3-0.1,0.5-0.2,0.8C269.9,97.1,269.2,100.6,268.5,104.3z M289.2,106c-0.6,1.9-1.3,3.7-2.3,5.1c-0.9,1.5-2,2.7-3.1,3.6
			c-1.1,0.9-2.2,1.5-3.2,1.7c0.8-4.2,1.6-8.2,2.3-11.9c0.7-3.7,1.4-7.6,2.1-11.8c1.3,0,2.4,0.6,3.4,1.8c1,1.2,1.6,3,1.6,5.3
			C290.1,102,289.8,104,289.2,106z"/>
		<path class="sstt11" d="M348.3,84.6c-0.6-1.6-1.4-3-2.4-4.1c-1-1.1-2.2-2-3.6-2.6c-1.4-0.6-2.8-0.9-4.3-0.9c-4.9,0-9.4,1.4-13.4,4.2
			c-4.1,2.8-7.6,6.5-10.5,11.1c-2.2,3.4-4,7.2-5.5,11.2c0.1-0.4,0.2-0.8,0.2-1.2c1.6-8.1,3.3-16.4,4.9-24.8l-14.7,2.4
			c-0.5,2.7-1,5.4-1.4,8c-0.1-0.3-0.1-0.5-0.2-0.8c-0.5-2.1-1.4-4-2.5-5.6c-1.2-1.6-2.8-2.9-4.7-3.8c-1.9-0.9-4.3-1.4-7.1-1.4
			c-1.6,0-3.4,0.2-5.2,0.5c-1.9,0.3-3.7,0.7-5.4,1.1c-1.5,0.4-3.1,0.8-4.6,1.2c0.2-0.9,0.5-1.8,0.8-2.7l-29.8,2.5l-12.4,67l28.3-4.4
			c-0.3,1.5-0.6,2.9-1,4.4l16.3-3.2c0.4-2.5,0.8-5,1.2-7.5c0.3-2.1,0.7-4.5,1.1-7c0.4-2.5,0.9-4.8,1.4-7h1c3,0,5.9-0.8,8.7-2.3
			c2.8-1.5,5.3-3.5,7.4-6.1c0.9-1,1.6-2.1,2.3-3.2c-0.4,1.9-0.7,3.8-1.1,5.7c-0.7,3.7-1.5,7.4-2.3,11c-0.8,3.6-1.6,7.1-2.3,10.4
			c-0.8,3.3-1.5,6.3-2.3,9c0.1-0.1,0.9-0.2,2.3-0.4c1.4-0.2,3-0.4,4.8-0.6c1.8-0.2,3.5-0.4,5.1-0.6c1.6-0.2,2.7-0.2,3.3-0.2
			c0.5-2.8,1.1-5.9,1.7-9.3c0.7-3.4,1.3-7,2-10.6c0.1-0.3,0.1-0.6,0.2-1c0,0.7,0,1.4,0,2.1c0,3.5,0.4,6.5,1.1,9.1
			c0.7,2.6,1.7,4.7,2.9,6.5c1.2,1.8,2.6,3.1,4.2,4c1.6,0.9,3.4,1.3,5.3,1.3c1.9,0,4-0.4,6-1.2c2.1-0.8,4.1-2.1,6.2-3.8
			c2-1.7,4-3.9,5.8-6.4c1.9-2.5,3.5-5.5,5-9l-10.7-4.3c-0.3,1.1-0.7,2.1-1.3,3.2c-0.6,1.1-1.3,2-2.1,2.9c-0.8,0.8-1.6,1.5-2.5,2.1
			c-0.9,0.5-1.7,0.8-2.4,0.8c-0.9,0-1.6-0.4-2.1-1.2c-0.5-0.8-0.8-2.2-0.8-4.2c0-1.3,0.2-3,0.7-5.1c0.5-2.1,1.1-4.3,1.8-6.6
			c0.8-2.3,1.6-4.6,2.6-6.9c1-2.3,2-4.4,3.1-6.2c1.1-1.9,2.2-3.4,3.3-4.5c1.1-1.2,2.2-1.7,3.2-1.7c1,0,1.9,0.8,2.6,2.4l12.4-3.3
			c0.1-0.4,0.1-0.9,0.1-1.3c0-0.4,0-0.8,0-1.2C349.2,88.1,348.9,86.2,348.3,84.6z M263.3,99.1c-0.7,3.6-1.4,7.4-2.2,11.1
			c-0.8,3.8-1.5,7.4-2.2,10.7c-0.7,3.1-1.3,6.3-2,9.5l-13.1,2.1l3.2-17.3c1.9-0.1,3.7-0.1,5.4-0.2c1.4-0.1,2.9-0.1,4.3-0.1
			c1.4,0,2.4-0.1,3.1-0.1c0.3-1.8,0.6-3.5,0.8-5.2c0.2-1.7,0.5-3.4,0.7-5.2c-0.7,0.1-1.8,0.1-3.2,0.1c-1.4,0-2.9,0-4.2,0.1
			c-1.7,0.1-3.5,0.2-5.5,0.3l3.3-16.9c1,0,2.2,0,3.5,0c1.4,0,2.7,0,4,0c1.3,0,2.6-0.1,3.7-0.1c1,0,1.8-0.1,2.5-0.1
			c-0.1,0.3-0.1,0.5-0.2,0.8C264.7,92,264,95.5,263.3,99.1z M284.1,100.8c-0.6,1.9-1.3,3.7-2.3,5.1c-0.9,1.5-2,2.7-3.1,3.6
			c-1.1,0.9-2.2,1.5-3.2,1.7c0.8-4.2,1.6-8.2,2.3-11.9c0.7-3.7,1.4-7.6,2.1-11.8c1.3,0,2.4,0.6,3.4,1.8c1,1.2,1.6,3,1.6,5.3
			C284.9,96.8,284.7,98.9,284.1,100.8z"/>
	</g>
</g>
</svg>
