<?xml version="1.0" encoding="utf-8"?>
<!-- Generator: Adobe Illustrator 26.0.1, SVG Export Plug-In . SVG Version: 6.00 Build 0)  -->
<svg version="1.1" id="Слой_1" xmlns="http://www.w3.org/2000/svg" xmlns:xlink="http://www.w3.org/1999/xlink" x="0px" y="0px"
	 viewBox="0 0 350 176" style="enable-background:new 0 0 350 176;" xml:space="preserve">
<style type="text/css">
	.st0{fill:#C9886B;}
	.st1{fill:#FFFFFF;}
</style>
<g>
	<g>
		<path class="st0" d="M121.6,174.4l-12.4-45.8l-9.1,33.9c-1.9,7-8.3,11.9-15.5,11.9H67.7L46.4,92.8c-1.3-4.9-0.2-9.9,2.8-13.9
			c3.1-4,7.7-6.2,12.7-6.2h13.2l9.5,47.3l8.7-35.1c1.8-7.2,8.2-12.2,15.6-12.2h0.9c7.4,0,13.8,5,15.6,12.2L134,120l6.9-34.4
			c1.5-7.5,8.1-12.9,15.8-12.9h20.8L154,162.4c-1.8,7.1-8.2,12-15.5,12H121.6z"/>
		<path class="st1" d="M174.8,74.6L152,161.9c-1.6,6.2-7.2,10.5-13.6,10.5h-15.3l-13.9-51.5L98.2,162c-1.7,6.1-7.2,10.4-13.6,10.4
			H69.2L48.3,92.3c-1.1-4.2-0.2-8.7,2.5-12.2c2.7-3.5,6.7-5.5,11.1-5.5h11.5l10.9,54.5l10.8-43.8c1.6-6.3,7.2-10.7,13.7-10.7h0.9
			c6.5,0,12.1,4.4,13.7,10.7l10.8,43.8l8.6-43.2c1.3-6.6,7.1-11.3,13.8-11.3H174.8 M180,70.6h-5.2h-18.2c-8.6,0-16,6.1-17.7,14.5
			l-5.1,25.7l-6.5-26.4c-2-8.1-9.2-13.7-17.5-13.7h-0.9c-8.3,0-15.5,5.6-17.5,13.7l-6.5,26.4l-7.4-37l-0.6-3.2h-3.3H61.9
			c-5.6,0-10.9,2.6-14.3,7c-3.4,4.5-4.6,10.2-3.2,15.6l20.9,80.1l0.8,3h3.1h15.4c8.1,0,15.3-5.5,17.4-13.4l7.2-26.8l10,37.2l0.8,3
			h3.1h15.3c8.2,0,15.4-5.6,17.5-13.5l22.8-87.2L180,70.6L180,70.6z"/>
	</g>
	<g>
		<path class="st0" d="M176.6,174.4V89c0-9,7.3-16.3,16.3-16.3h16.3V158c0,9-7.3,16.3-16.3,16.3H176.6z"/>
		<path class="st1" d="M207.3,74.6V158c0,7.9-6.4,14.3-14.3,14.3h-14.3V89c0-7.9,6.4-14.3,14.3-14.3H207.3 M211.3,70.6h-4h-14.3
			c-10.1,0-18.3,8.2-18.3,18.3v83.4v4h4h14.3c10.1,0,18.3-8.2,18.3-18.3V74.6V70.6L211.3,70.6z"/>
	</g>
	<g>
		<path class="st0" d="M286.7,174.4c-5,0-9.8-2.4-12.7-6.5l-28.4-39.1v29.8c0,8.7-7.1,15.7-15.7,15.7h-15.7v-86
			c0-8.7,7.1-15.7,15.7-15.7h2c5,0,9.8,2.4,12.7,6.5l28.2,38.6V88.4c0-8.7,7.1-15.7,15.7-15.7h15.7v86c0,8.7-7.1,15.7-15.7,15.7
			H286.7z"/>
		<path class="st1" d="M302.2,74.6v84c0,7.6-6.2,13.7-13.7,13.7h-1.8c-4.4,0-8.5-2.1-11.1-5.7l-32-44.1v36c0,7.6-6.2,13.7-13.7,13.7
			h-13.7v-84c0-7.6,6.2-13.7,13.7-13.7h2c4.4,0,8.5,2.1,11.1,5.6l31.8,43.6V88.4c0-7.6,6.2-13.7,13.7-13.7H302.2 M306.2,70.6h-4
			h-13.7c-9.8,0-17.7,8-17.7,17.7v23.2l-24.6-33.7c-3.3-4.6-8.7-7.3-14.3-7.3h-2c-9.8,0-17.7,8-17.7,17.7v84v4h4h13.7
			c9.8,0,17.7-8,17.7-17.7V135l24.8,34.1c3.3,4.6,8.7,7.3,14.3,7.3h1.8c9.8,0,17.7-8,17.7-17.7v-84V70.6L306.2,70.6z"/>
	</g>
</g>
<g>
	<path class="st0" d="M28.2,164.4c0-10.2-8.3-18.5-18.5-18.5v-1c10.2,0,18.5-8.3,18.5-18.5h1c0,10.2,8.3,18.5,18.5,18.5v1
		c-10.2,0-18.5,8.3-18.5,18.5H28.2z"/>
	<path class="st1" d="M28.7,126.4c0,10.5,8.5,19,19,19c-10.5,0-19,8.5-19,19c0-10.5-8.5-19-19-19C20.2,145.4,28.7,136.9,28.7,126.4
		 M29.7,126.4h-2c0,9.9-8.1,18-18,18v2c9.9,0,18,8.1,18,18h2c0-9.9,8.1-18,18-18v-2C37.7,144.4,29.7,136.3,29.7,126.4L29.7,126.4z"
		/>
</g>
<g>
	<path class="st0" d="M330.5,164.4c0-10.2-8.3-18.5-18.5-18.5v-1c10.2,0,18.5-8.3,18.5-18.5h1c0,10.2,8.3,18.5,18.5,18.5v1
		c-10.2,0-18.5,8.3-18.5,18.5H330.5z"/>
	<path class="st1" d="M331,126.4c0,10.5,8.5,19,19,19c-10.5,0-19,8.5-19,19c0-10.5-8.5-19-19-19C322.5,145.4,331,136.9,331,126.4
		 M332,126.4h-2c0,9.9-8.1,18-18,18v2c9.9,0,18,8.1,18,18h2c0-9.9,8.1-18,18-18v-2C340.1,144.4,332,136.3,332,126.4L332,126.4z"/>
</g>
<g>
	<path class="st0" d="M290.5,46.6c0-6-4.9-10.9-10.9-10.9v-0.8c6,0,10.9-4.9,10.9-10.9h0.8c0,6,4.9,10.9,10.9,10.9v0.8
		c-6,0-10.9,4.9-10.9,10.9H290.5z"/>
	<path class="st1" d="M290.9,24c0,6.2,5.1,11.3,11.3,11.3c-6.2,0-11.3,5.1-11.3,11.3c0-6.2-5.1-11.3-11.3-11.3
		C285.8,35.3,290.9,30.3,290.9,24 M291.6,24h-1.5c0,5.8-4.7,10.5-10.5,10.5v1.5c5.8,0,10.5,4.7,10.5,10.5h1.5
		c0-5.8,4.7-10.5,10.5-10.5v-1.5C296.4,34.6,291.6,29.8,291.6,24L291.6,24z"/>
</g>
<g>
	<path class="st0" d="M95.2,52.1c0-6-4.9-10.9-10.9-10.9v-0.8c6,0,10.9-4.9,10.9-10.9H96c0,6,4.9,10.9,10.9,10.9v0.8
		c-6,0-10.9,4.9-10.9,10.9H95.2z"/>
	<path class="st1" d="M95.6,29.5c0,6.2,5.1,11.3,11.3,11.3c-6.2,0-11.3,5.1-11.3,11.3c0-6.2-5.1-11.3-11.3-11.3
		C90.6,40.8,95.6,35.7,95.6,29.5 M96.4,29.5h-1.5c0,5.8-4.7,10.5-10.5,10.5v1.5c5.8,0,10.5,4.7,10.5,10.5h1.5
		c0-5.8,4.7-10.5,10.5-10.5V40C101.1,40,96.4,35.3,96.4,29.5L96.4,29.5z"/>
</g>
<g>
	<path class="st0" d="M227,52.1c0-6-4.9-10.9-10.9-10.9v-0.8c6,0,10.9-4.9,10.9-10.9h0.8c0,6,4.9,10.9,10.9,10.9v0.8
		c-6,0-10.9,4.9-10.9,10.9H227z"/>
	<path class="st1" d="M227.4,29.5c0,6.2,5.1,11.3,11.3,11.3c-6.2,0-11.3,5.1-11.3,11.3c0-6.2-5.1-11.3-11.3-11.3
		C222.3,40.8,227.4,35.7,227.4,29.5 M228.1,29.5h-1.5c0,5.8-4.7,10.5-10.5,10.5v1.5c5.8,0,10.5,4.7,10.5,10.5h1.5
		c0-5.8,4.7-10.5,10.5-10.5V40C232.9,40,228.1,35.3,228.1,29.5L228.1,29.5z"/>
</g>
<g>
	<path class="st0" d="M28.4,70.4c0-4.7-3.8-8.4-8.4-8.4v-0.5c4.7,0,8.4-3.8,8.4-8.4h0.5c0,4.7,3.8,8.4,8.4,8.4V62
		c-4.7,0-8.4,3.8-8.4,8.4H28.4z"/>
	<path class="st1" d="M28.7,53c0,4.8,3.9,8.7,8.7,8.7c-4.8,0-8.7,3.9-8.7,8.7c0-4.8-3.9-8.7-8.7-8.7C24.8,61.7,28.7,57.8,28.7,53
		 M29.2,53h-1c0,4.5-3.7,8.2-8.2,8.2v1c4.5,0,8.2,3.7,8.2,8.2h1c0-4.5,3.7-8.2,8.2-8.2v-1C32.9,61.2,29.2,57.5,29.2,53L29.2,53z"/>
</g>
<g>
	<path class="st0" d="M330.8,93.5c0-4.7-3.8-8.4-8.4-8.4v-0.5c4.7,0,8.4-3.8,8.4-8.4h0.5c0,4.7,3.8,8.4,8.4,8.4v0.5
		c-4.7,0-8.4,3.8-8.4,8.4H330.8z"/>
	<path class="st1" d="M331,76.1c0,4.8,3.9,8.7,8.7,8.7c-4.8,0-8.7,3.9-8.7,8.7c0-4.8-3.9-8.7-8.7-8.7C327.1,84.8,331,80.9,331,76.1
		 M331.5,76.1h-1c0,4.5-3.7,8.2-8.2,8.2v1c4.5,0,8.2,3.7,8.2,8.2h1c0-4.5,3.7-8.2,8.2-8.2v-1C335.2,84.3,331.5,80.6,331.5,76.1
		L331.5,76.1z"/>
</g>
<g>
	<path class="st0" d="M161.3,60.7c0-4.7-3.8-8.4-8.4-8.4v-0.5c4.7,0,8.4-3.8,8.4-8.4h0.5c0,4.7,3.8,8.4,8.4,8.4v0.5
		c-4.7,0-8.4,3.8-8.4,8.4H161.3z"/>
	<path class="st1" d="M161.5,43.4c0,4.8,3.9,8.7,8.7,8.7c-4.8,0-8.7,3.9-8.7,8.7c0-4.8-3.9-8.7-8.7-8.7
		C157.6,52.1,161.5,48.2,161.5,43.4 M162,43.4h-1c0,4.5-3.7,8.2-8.2,8.2v1c4.5,0,8.2,3.7,8.2,8.2h1c0-4.5,3.7-8.2,8.2-8.2v-1
		C165.7,51.6,162,47.9,162,43.4L162,43.4z"/>
</g>
</svg>
