<?xml version="1.0" encoding="utf-8"?>
<!-- Generator: Adobe Illustrator 26.0.1, SVG Export Plug-In . SVG Version: 6.00 Build 0)  -->
<svg version="1.1" id="Слой_1" xmlns="http://www.w3.org/2000/svg" xmlns:xlink="http://www.w3.org/1999/xlink" x="0px" y="0px"
	 viewBox="0 0 150 180" style="enable-background:new 0 0 150 180;" xml:space="preserve">
<g>
	<path d="M75,55.3c-6.1,3.4-35,21.1-35,49.7c0,19.3,15.7,35,35,35s35-15.7,35-35C110,76.5,81.1,58.8,75,55.3z M75,130
		c-13.8,0-25-11.2-25-25c0-17.8,14.8-30.8,23.6-36.9l1.4-1l1.4,1C85.2,74.3,100,87.4,100,105C100,118.8,88.8,130,75,130z"/>
	<path d="M115.3,33.2c-17-17.5-35-27.9-40.1-30.6L75,2.5l-0.2,0.1C70,5.2,45,19.4,25.8,43.3c-1.1,1.2-2.7,2-4.3,2
		c-0.7,0-1.3-0.2-1.7-0.3L3.2,39.5c-0.1,0-0.2-0.1-0.2-0.1c-0.2,0-0.5,0.2-0.5,0.5v64.9v3.6h0.1l0.2,2.3c1.4,18.2,9.5,35,22.9,47.4
		c13.4,12.5,30.9,19.4,49.3,19.4c40,0,72.5-32.6,72.5-72.7C147.5,79.4,136.7,55.3,115.3,33.2z M75,167.5c-15.8,0-30.9-5.9-42.5-16.7
		C21,140.1,14,125.6,12.7,109.9l-0.2-2.7v-0.1V107v-2.1V56.6V53l3.4,1.3l0.7,0.3c1.6,0.5,3.3,0.8,4.9,0.8c4.7,0,9.1-2.1,12.2-5.9
		c13.9-17.2,31-29.1,40-34.7L75,14l1.3,0.8c18.4,11.4,61.2,43,61.2,90C137.5,139.4,109.5,167.5,75,167.5z"/>
</g>
</svg>
