<?xml version="1.0" encoding="utf-8"?>
<!-- Generator: Adobe Illustrator 26.0.1, SVG Export Plug-In . SVG Version: 6.00 Build 0)  -->
<svg version="1.1" id="Слой_1" xmlns="http://www.w3.org/2000/svg" xmlns:xlink="http://www.w3.org/1999/xlink" x="0px" y="0px"
	 viewBox="0 0 150 100" style="enable-background:new 0 0 150 100;" xml:space="preserve">
<path d="M125.2,47.6l-5.2-1.4l4.4-3c3.6-2.4,3.3-8.9,3-14.5c-0.1-2.3-0.2-4.4,0-6.2c0.1-2.2-0.7-4.2-2.5-6.1
	C117.4,8.2,93.4,2.8,65.2,2.8c-28.3,0-52.4,5.5-60,13.6c-1.8,2-2.7,4-2.5,6.2l0,0.1l0,0.1l0,0.1c-0.4,8.9-0.6,14.7,1.9,18.8
	c2.6,4.1,8.5,7.2,20.4,10.8l4.1,1.2l-3.1,3c-2.3,2.2-3.4,4.3-3.3,6.3l0,0v0v14.7c0,4.7,6.5,9.8,17.3,13.6c12,4.1,28,6.4,45.1,6.4
	c36.8,0,62.4-10.6,62.4-20.1V63v-0.3C147.5,57.2,139,51.4,125.2,47.6z M5.8,22.5l2.1-2.1c1.4-1.4,5.8-5,16.7-8.1
	C36.5,9,51.9,7.1,66.9,7.1c13.8,0,39.4,1.7,55.3,13.1l2.9,2.1l-2.9,2c-11.9,8.3-33.2,13.3-56.9,13.3s-45-5-56.9-13.3L5.8,22.5z
	 M8.2,42.6l-1.1-0.7v-1.3V30.4v-4.8l3.9,2.7c11.1,7.7,31.3,12.4,54.1,12.4c22.8,0,43-4.6,54.1-12.4l3.9-2.7v4.8v10.1v1.3l-1.1,0.7
	c-11.9,8.3-33.2,13.3-56.9,13.3C41.4,55.8,20.1,50.9,8.2,42.6z M143.1,70.1v10v1.3l-1.1,0.7c-11.9,8.3-33.2,13.3-56.9,13.3
	c-23.7,0-45-5-56.9-13.3l-1.1-0.7v-1.3v-10v-4.8L31,68c11.1,7.7,31.3,12.4,54.1,12.4c22.8,0,43-4.6,54.1-12.4l3.9-2.7V70.1z
	 M142.3,64.5c-1.4,1.4-5.7,4.8-16.7,8c-11.9,3.3-27.3,5.2-42.3,5.2C69.5,77.7,43.9,76,28,64.6l-2.5-1.8l2.3-2.1
	c1.1-1,3.8-3.1,9.1-5.4l0.7-0.3l0.7,0.1c7.3,1.3,16.2,2,25.8,2c19,0,37.3-2.7,47.9-7.1l0.6-0.2l0.6,0.1c7.5,0.7,26.2,6.6,29.3,11.3
	l1.1,1.7L142.3,64.5z"/>
</svg>
