<?xml version="1.0" encoding="utf-8"?>
<!-- Generator: Adobe Illustrator 26.0.1, SVG Export Plug-In . SVG Version: 6.00 Build 0)  -->
<svg version="1.1" id="Слой_1" xmlns="http://www.w3.org/2000/svg" xmlns:xlink="http://www.w3.org/1999/xlink" x="0px" y="0px"
	 viewBox="0 0 150 100" style="enable-background:new 0 0 150 100;" xml:space="preserve">
<path d="M125.9,45.2c6.4-4.4,3.5-16.4,4.1-22.6C132-7.2-1.8-7.2,0.2,22.7c-0.8,18.8-1.1,24.6,24.1,32.2c-2.7,2.6-4.2,5.3-4.1,8.2
	v14.7c0,12.5,29.1,22.5,64.9,22.5S150,90.2,150,77.7V63c0-0.1,0-0.2,0-0.3C150,55.6,140.6,49.3,125.9,45.2z M140.5,62.7
	c-1.7,1.7-6.3,4.7-15.6,7.4c-26.2,7.3-73.2,8.4-95.4-7.5c1.3-1.2,3.9-3,8.4-4.9c22.2,4,57.4,2.1,75.1-5.2
	C121.2,53.3,138.2,59.2,140.5,62.7z M25.3,14.7c26.2-7.3,73.2-8.4,95.4,7.5c-24.5,17.1-86.5,17.1-111,0C11.4,20.5,16,17.4,25.3,14.7
	z M9.6,40.5V30.4c24.5,17.1,86.5,17.1,111,0v10.1C96.1,57.6,34.2,57.6,9.6,40.5z M140.6,80.1c-24.5,17.1-86.5,17.1-111,0V70.1
	c24.5,17.1,86.5,17.1,111,0V80.1z"/>
</svg>
