<?xml version="1.0" encoding="utf-8"?>
<!-- Generator: Adobe Illustrator 26.0.1, SVG Export Plug-In . SVG Version: 6.00 Build 0)  -->
<svg version="1.1" id="Слой_1" xmlns="http://www.w3.org/2000/svg" xmlns:xlink="http://www.w3.org/1999/xlink" x="0px" y="0px"
	 viewBox="0 0 18 16" style="enable-background:new 0 0 18 16;" xml:space="preserve">
<g>
	<path d="M9,5.4c-1.5,0-2.6,1.2-2.6,2.6c0,1.5,1.2,2.6,2.6,2.6c1.5,0,2.6-1.2,2.6-2.6C11.6,6.6,10.5,5.4,9,5.4z"/>
	<path d="M17.1,4.6c-3.6-6.1-12.5-6.1-16.1,0c-1.3,2.1-1.3,4.7,0,6.8c3.6,6.1,12.5,6.1,16.1,0C18.3,9.3,18.3,6.7,17.1,4.6z M9,11.9
		c-2.1,0-3.9-1.7-3.9-3.9c0-2.1,1.7-3.9,3.9-3.9c2.1,0,3.9,1.7,3.9,3.9C12.9,10.2,11.1,11.9,9,11.9z"/>
</g>
</svg>
