<?xml version="1.0" encoding="utf-8"?>
<!-- Generator: Adobe Illustrator 26.0.1, SVG Export Plug-In . SVG Version: 6.00 Build 0)  -->
<svg version="1.1" id="Слой_1" xmlns="http://www.w3.org/2000/svg" xmlns:xlink="http://www.w3.org/1999/xlink" x="0px" y="0px"
	 viewBox="0 0 150 100" style="enable-background:new 0 0 150 100;" xml:space="preserve">
<g>
	<path d="M119.3,16.1C106.3,7.2,90.9,2.5,75,2.5S43.7,7.2,30.7,16.1C18.2,24.6,8.5,36.3,2.7,50c5.8,13.7,15.5,25.4,27.9,33.9
		C43.7,92.8,59.1,97.5,75,97.5s31.3-4.7,44.3-13.6c12.5-8.5,22.1-20.2,27.9-33.9C141.5,36.3,131.8,24.6,119.3,16.1z M116.5,79.8
		C104.4,88.1,90,92.5,75,92.5s-29.4-4.4-41.5-12.7c-10.6-7.1-19.2-17-24.8-28.7L8.1,50l0.5-1.1c5.5-11.5,14-21.4,24.8-28.7
		C45.6,11.9,60,7.5,75,7.5c15,0,29.4,4.4,41.5,12.7c10.7,7.3,19.3,17.2,24.7,28.7l0.5,1.1l-0.5,1.1
		C135.7,62.7,127.2,72.6,116.5,79.8z"/>
	<path d="M75,27.5c-12.4,0-22.5,10.1-22.5,22.5S62.6,72.5,75,72.5S97.5,62.4,97.5,50S87.4,27.5,75,27.5z M75,67.5
		c-9.6,0-17.5-7.9-17.5-17.5S65.4,32.5,75,32.5S92.5,40.4,92.5,50S84.6,67.5,75,67.5z"/>
</g>
</svg>
