<?xml version="1.0" encoding="utf-8"?>
<!-- Generator: Adobe Illustrator 26.0.1, SVG Export Plug-In . SVG Version: 6.00 Build 0)  -->
<svg version="1.1" id="Слой_1" xmlns="http://www.w3.org/2000/svg" xmlns:xlink="http://www.w3.org/1999/xlink" x="0px" y="0px"
	 viewBox="0 0 150 100" xml:space="preserve">
<g>
	<path class="st0" d="M75,0L75,0C41,0,12,20.7,0,50c12,29.3,41,50,75,50h0c34,0,63-20.7,75-50C138,20.7,109,0,75,0z M115.1,77.7
		C103.3,85.8,89.4,90,75,90c-14.4,0-28.3-4.2-40.1-12.3C24.5,70.7,16.3,61.1,10.9,50c5.3-11.1,13.6-20.7,23.9-27.7
		C46.7,14.2,60.6,10,75,10c14.4,0,28.3,4.2,40.1,12.3c10.4,7.1,18.6,16.6,23.9,27.7C133.7,61.1,125.5,70.7,115.1,77.7z"/>
	<path class="st0" d="M75,25L75,25c-13.8,0-25,11.2-25,25v0c0,13.8,11.2,25,25,25h0c13.8,0,25-11.2,25-25v0C100,36.2,88.8,25,75,25z
		 M75,65c-8.3,0-15-6.7-15-15c0-8.3,6.7-15,15-15c8.3,0,15,6.7,15,15C90,58.3,83.3,65,75,65z"/>
</g>
</svg>
