<?xml version="1.0" encoding="utf-8"?>
<!-- Generator: Adobe Illustrator 26.0.1, SVG Export Plug-In . SVG Version: 6.00 Build 0)  -->
<svg version="1.1" id="Слой_1" xmlns="http://www.w3.org/2000/svg" xmlns:xlink="http://www.w3.org/1999/xlink" x="0px" y="0px"
	 viewBox="0 0 150 195" style="enable-background:new 0 0 150 195;" xml:space="preserve">
<g>
	<path d="M75,99.9c26.6,0,48.3-21.8,48.3-48.7V26.8c0-13.4-10.8-24.3-24.1-24.3H75c-26.6,0-48.3,21.8-48.3,48.7
		C26.7,78.1,48.4,99.9,75,99.9z M75,12.1h24.2c8.1,0,14.6,6.6,14.6,14.7v24.4c0,21.6-17.4,39.1-38.8,39.1S36.2,72.8,36.2,51.2
		C36.2,29.6,53.6,12.1,75,12.1z"/>
	<path d="M128.2,119.5H50.8c-26.6,0-48.3,21.8-48.3,48.7v4.9c0,10.7,8.7,19.4,19.3,19.4h77.4c26.6,0,48.3-21.8,48.3-48.7v-4.9
		C147.5,128.2,138.8,119.5,128.2,119.5z M138,143.8c0,21.6-17.4,39.1-38.8,39.1H21.8c-5.4,0-9.8-4.4-9.8-9.8v-4.9
		c0-21.6,17.4-39.1,38.8-39.1h77.4c5.4,0,9.8,4.4,9.8,9.8V143.8z"/>
</g>
</svg>
