<svg xmlns="http://www.w3.org/2000/svg" xml:space="preserve" x="0" y="0" version="1.0" viewBox="0 0 3285 3285"><linearGradient id="a" x1="850" x2="2752" y1="2753" y2="131" gradientUnits="userSpaceOnUse"><stop offset="0" stop-color="#eda883"/><stop offset="1" stop-color="#9d532e"/></linearGradient><circle fill="url(#a)" cx="1650" cy="1650" r="1619"/><linearGradient id="b" x1="954" x2="2608" y1="2609" y2="329" gradientUnits="userSpaceOnUse"><stop offset="0" stop-color="#9d532e"/><stop offset="1" stop-color="#eda883"/></linearGradient><circle fill="url(#b)" cx="1650" cy="1650" r="1408"/><path d="m1098 1753 57 71 169-71-44-29" fill="#511D02"/><path d="M1629 2584v-2l-125-413-41-124 36-136-104-149-51-113 86-110 237-88 246-127 253 136 180 178-55 245-85 206-74 4-88-33-100 2-49 2-26 26-16 13-10 43-22 76-21 26" fill="#F2A880"/><path d="m1342 2272-64 193 226-12" fill="#FFCDB3"/><path d="m2132 2031 56 66h67l41-13 21-26-76-105" fill="#8A4117"/><path d="m1467 1700 140 201 185-105-181-5" fill="#792F07"/><path d="m2150 1310 44 49-65 43 58 117 106-143 11-78" fill="#4A1E00"/><path d="m1356 833-136 9 35-130 123 50" fill="#91471F"/><path d="m1390 720-135-8 123 50" fill="#441B08"/><path d="m1391 937-35-104 51-174" fill="#CB8159"/><path d="m1391 937 37-67 96-11 88-82-205-118" fill="#F5AB83"/><path d="m1487 705 32-107-49 97" fill="#79340E"/><path d="m1519 598 62 41-64 83-30-17" fill="#B1673E"/><path d="m1637 573-25 204-95-55" fill="#C77E55"/><path d="M1637 573 1814 710l-119 53-25-29-58 43" fill="#FEB994"/><path d="m1699 621 98-91 12 160-16 3" fill="#C98057"/><path d="m1809 690 78-54-90-106" fill="#F7AB83"/><path d="m1158 846 198-13L1390 940" fill="#752B03"/><path d="m1145 1079 11-235L1390 940l-118 29" fill="#B66C44"/><path d="m1145 1081-166-87 172-51" fill="#752B03"/><path d="m992 1175-13-181 166 85-80 19v39" fill="#A45B32"/><path d="m1959 611 79 150 11-206" fill="#FFEFE5"/><path d="m2049 555 41 182-52 24m-89 59 3-218 86 161" fill="#FFC7AA"/><path d="m1952 602-159 91 21 17 38-14 97 124" fill="#FFEFE5"/><path d="m1695 763 106 142 52-212" fill="#FFEFE5"/><path d="m1801 905 148-85-97-124" fill="#FFC7AA"/><path d="m1634 1002 167-97L1670 734" fill="#FCB28A"/><path d="m1524 859 110 143 36-268" fill="#FFD3BA"/><path d="M1631 1002 1428 870l96-11" fill="#BA7148"/><path d="m1459 1103 175-98L1428 870" fill="#FFBC97"/><path d="m1390 940 69 163-31-233" fill="#B76E46"/><path d="m1459 1103-187-134L1390 940" fill="#E1976F"/><path d="m1272 969 19 239 168-105" fill="#F6AD84"/><path d="m1145 1079 146 129-19-239" fill="#A45A32"/><path d="m1065 1098 226 110-146-128" fill="#8E451A"/><path d="m1151 1288 140-80-226-109" fill="#B2693E"/><path d="m1151 1288-83-55-3-134" fill="#752C03"/><path d="m1068 1233-20 110 105-56" fill="#843A12"/><path d="m1066 1135-175 98 158 107 19-109" fill="#964D25"/><path d="m893 1232 100 149 58-40" fill="#803913"/><path d="m2232 737-193 25 51-25" fill="#FFC7AA"/><path d="m2188 967 44-230-194 26-86 57 207-55" fill="#DB9269"/><path d="m2159 765-37 213 70-8" fill="#AD6136"/><path d="m1949 820 209-55-37 213" fill="#FFBE9D"/><path d="m2122 981-167 95 43-213" fill="#E4986D"/><path d="m1804 905 192-42-47-42" fill="#F2A67E"/><path d="m1804 906 151 170 41-211" fill="#FEF1E9"/><path d="m1802 905-15 80 165 91" fill="#FFBA9B"/><path d="m1952 1076-194 112 29-203zm-318-73 167-97-14 79" fill="#CC835B"/><path d="m1634 1002 153-17-29 203" fill="#C37A52"/><path d="m1634 1005-61 103 183 82" fill="#CF855D"/><path d="m1756 1190-201 122 18-204zm-122-185-61 103-114-3" fill="#E0966E"/><path d="m1555 1312-96-203 114 3" fill="#B76E45"/><path d="m1457 1107-98 126 196 79" fill="#E1986F"/><path d="m1291 1208 68 25 98-126" fill="#A25931"/><path d="m1555 1312-196 114v-193" fill="#A85F37"/><path d="m1291 1208 68 218v-193" fill="#B97048"/><path d="m1291 1209-1 1-135 141 202 91v-23" fill="#CA8158"/><path d="m1155 1351-4-63 136-78 1 2m-133 141 40 181 154-88 5-2 3-2" fill="#9C532B"/><path d="m988 1449 163-161 3 64 38 167" fill="#AA6038"/><path d="m1192 1519-121 79-83-149" fill="#692401"/><path d="m988 1448 60-105 103-55" fill="#B56B43"/><path d="m875 1519 171-173-57 102 82 150" fill="#954D26"/><path d="M875 1519 996 1380l50-36" fill="#692401"/><path d="m2192 970 52 66-25 80-96-137" fill="#FFD3B2"/><path d="m2244 1036 19 145-44-65" fill="#762A02"/><path d="m2124 982 49 91 90 107" fill="#A05A34"/><path d="m1957 1076 216-3-51-92" fill="#FFBC98"/><path d="M2173 1073v1l-56 148-66 4-94-150" fill="#E79E76"/><path d="m2118 1221 55-148 90 108" fill="#D28961"/><path d="m1955 1078-4 126 100 22" fill="#FFBC95"/><path d="m1758 1190 193 14 4-128" fill="#FFCCB1"/><path d="m1758 1190 78 137 77-5 38-118" fill="#DC9369"/><path d="m1951 1204 136 93-36-71" fill="#FFDFC1"/><path d="m1884 1411 67-207 136 93" fill="#FFBC95"/><path d="m2087 1296 176-116-147 43-65 2" fill="#FCCEB0"/><path d="m1836 1327 48 85 29-90" fill="#FCCDB7"/><path d="m1707 1348 177 63-48-84" fill="#FED8C5"/><path d="m1707 1348 49-156 78 134" fill="#F3A981"/><path d="m1555 1312 152 36 47-156" fill="#D78D65"/><path d="m1707 1348-29 185 206-122" fill="#C67C54"/><path d="m1555 1312 123 221 29-185" fill="#AD633B"/><path d="m1555 1312-88 167 211 54" fill="#D0865E"/><path d="m1469 1662-2-183 211 54" fill="#8C421A"/><path d="m1359 1426 108 53 88-167" fill="#EEA57C"/><path d="m1359 1426 110 236-2-183" fill="#9E552D"/><path d="m1237 1628 122-202 108 232" fill="#924820"/><path d="m1237 1628 59 130 171-100" fill="#7A320A"/><path d="m1195 1534 45 97 104-182zm-125 92-82 115 260 29" fill="#7A320A"/><path d="m1065 1724 128-199 99 227" fill="#873D15"/><path d="m1065 1724 6-126 121-78 1 5" fill="#511D02"/><path d="m1260 1775 38 151 123-241" fill="#692701"/><path d="m2150 1310 138 25 16-37" fill="#762A02"/><path d="m2187 1519 106-143 8 84" fill="#290B00"/><path d="m2150 1310-32 49 20 37 56-37" fill="#BF7541"/><path d="m2187 1519 51-27 28 27-48 88-130-139 3-48 38-18" fill="#7C2E06"/><path d="m1884 1411 203 47v-161h215l-39-117" fill="#FFE0CE"/><path d="M2087 1297v114l31-52" fill="#FFE0CE"/><path d="m2087 1297 31 62 42-64" fill="#FFB18E"/><path d="m2118 1359-30 49-1 13 51-25" fill="#FFBC95"/><path d="m1884 1411 124 222 80-165-1-10" fill="#FFE2D0"/><path d="m2008 1633 80-165 78 83" fill="#FFBC91"/><path d="m2008 1633 4 8 72-21 23 18 89-55-30-32zm243-88 2 1 127 67 34-22-113-131-63 32 28 27" fill="#FBDBCE"/><path d="m2216 1605 13 80h57l-29-78 89 29 34-23-129-67" fill="#FFCAAC"/><path d="m2229 1685 12 53 139-125-34 23-89-29 26 78" fill="#D3895F"/><path d="m2241 1738 140-125-2 46" fill="#4A1E00"/><path d="m2381 1613-2 46 46-28v-22l-11-18" fill="#CC7F52"/><path d="m2379 1659 11 22 35-26v-24" fill="#934A1B"/><path d="m2241 1738 81 68v-28l36-39-2-43 34-15-11-20" fill="#B86E45"/><path d="m2322 1806 8 7 55-55-27-19-36 39" fill="#F3A77F"/><path d="m1854 1613 30-202 128 230" fill="#DE956D"/><path d="m1885 1410-31 203-174-79-2-1" fill="#FED0BA"/><path d="m1678 1533 60 126 46-32 70-14" fill="#F5AB80"/><path d="m1807 1773 47-160 158 28" fill="#7C2E06"/><path d="m1788 1626 19 147 47-160" fill="#8C451A"/><path d="m1738 1659 69 114-19-147" fill="#C0774E"/><path d="m1807 1773-196-13 127-101" fill="#D38C61"/><path d="m1611 1760 67-227 58 126" fill="#FFCAAE"/><path d="m1469 1662 142 98 67-227" fill="#C98057"/><path d="m2332 1813 59-15v-40h-6" fill="#BD744B"/><path d="m2011 1641 138 18 38-20 6-56-87 54-23-19" fill="#E4956E"/><path d="m2187 1639-4 105-172-103" fill="#C0744C"/><path d="m2193 1580-10 164 58-6-25-133" fill="#7C2E06"/><path d="m1324 1854 93-160 4 215" fill="#290B00"/><path d="m1421 1929-4-235 82 204" fill="#81390F"/><path d="m1417 1694 82 204 108-48" fill="#AC6438"/><path d="m1410 1939 53 81 24-86" fill="#6E2400"/><path d="m1616 1932-153 88 24-86" fill="#81390F"/><path d="m1463 2045 132-133 26 206" fill="#AA6136"/><path d="m1625 1910 126 177 23-47-152-130" fill="#320D00"/><path d="m1627 1945 171-96-6 198" fill="#7F360E"/><path d="m1913 1967-120 35 5-208" fill="#652401"/><path d="m1798 1794 172 97-57 76" fill="#873D15"/><path d="m1970 1891 21-213-193 116" fill="#B46A42"/><path d="m1991 1678 90 195-111 18" fill="#8E451C"/><path d="m1991 1678 196 92-106 103" fill="#9A5028"/><path d="m2187 1770 49 15-158 90" fill="#7E340C"/><path d="m2082 1873 159 109-5-197" fill="#9B5129"/><path d="M2250 1924v30l72 4v-46l40-4 9-27-9-27-19-14-11-11-10 3" fill="#BD744B"/><path d="m2246 1742 4 183 96-42-33-41 23-23" fill="#944B22"/><path d="m2081 1873 36 160 124-51" fill="#6F2803"/><path d="M1915 1966s167 114 167 110v-204l-167 94" fill="#792D06"/><path d="m1913 1967 57-76 111-18" fill="#611F00"/><path d="m2081 1873 1 203 50 15zm51 158 18 64 38 2" fill="#622202"/><path d="m2317 2058 20-25 4-44-19-31-81-5" fill="#B4683D"/><path d="m1857 2012 60 52 37-11 128 23-167-111 27 66" fill="#341504"/><path d="m1622 2191 21-208 135 158" fill="#612403"/><path d="m1738 2126 4 3 92 75 35-164" fill="#8D4419"/><path d="m1481 2090-20 182 144-91" fill="#FFD0B3"/><path d="m1598 2163-9 62 64-15" fill="#8D4419"/><path d="M1600 2235v64l76-23-19-53" fill="#C0764E"/><path d="m1600 2299 58 150 18-173zm76 18 45 54 36-54" fill="#B76E45"/><path d="m1719 2371 35 38 49-92h-47" fill="#D68D62"/><path d="m1411 2461 125 100-31-159" fill="#FFE2CF"/><path d="m1491 2521-9 105 126 4" fill="#FBD1B3"/><path d="m1317 2302 1 2 88 142 29-208" fill="#D18B62"/><path d="m1135 2550 143-199 200 294-219 21 19-105" fill="#BA6B48"/><path d="m1185 2580-5 190 73-205 114 24 80-68-203 17" fill="#FFE2CF"/><path d="m1097 2604 44 163 15-202" fill="#CC825C"/><path d="m922 2593 175 11 59-39" fill="#BF7550"/></svg>
