<?xml version="1.0" encoding="utf-8"?>
<!-- Generator: Adobe Illustrator 26.0.1, SVG Export Plug-In . SVG Version: 6.00 Build 0)  -->
<svg version="1.1" id="Слой_1" xmlns="http://www.w3.org/2000/svg" xmlns:xlink="http://www.w3.org/1999/xlink" x="0px" y="0px"
	 viewBox="0 0 18 18" style="enable-background:new 0 0 18 18;" xml:space="preserve">
<style type="text/css">
	.st0{fill-rule:evenodd;clip-rule:evenodd;}
</style>
<path class="st0" d="M17.7,6C17,3.2,14.8,1,12,0.3c-2-0.5-4-0.5-5.9,0C3.2,1,1,3.2,0.3,6c-0.5,2-0.5,4,0,5.9C1,14.8,3.2,17,6,17.7
	c2,0.5,4,0.5,5.9,0c2.8-0.7,5-2.9,5.7-5.7C18.1,10,18.1,8,17.7,6z M12.8,9.4l-2.4,2.4c-0.2,0.2-0.6,0.2-0.8,0s-0.2-0.6,0-0.8L11,9.6
	H5.6C5.3,9.6,5.1,9.3,5.1,9c0-0.3,0.3-0.6,0.6-0.6H11L9.6,7c-0.2-0.2-0.2-0.6,0-0.8s0.6-0.2,0.8,0l2.4,2.4c0.1,0.1,0.2,0.3,0.2,0.4
	C12.9,9.2,12.9,9.3,12.8,9.4z"/>
</svg>
