<?xml version="1.0" encoding="utf-8"?>
<!-- Generator: Adobe Illustrator 26.0.1, SVG Export Plug-In . SVG Version: 6.00 Build 0)  -->
<svg version="1.1" id="Слой_1" xmlns="http://www.w3.org/2000/svg" xmlns:xlink="http://www.w3.org/1999/xlink" x="0px" y="0px"
	 viewBox="0 0 16 19" style="enable-background:new 0 0 16 19;" xml:space="preserve">
<path d="M15.9,11.2c0-4.7-3.2-7.3-3.8-7.8c-0.1,0-0.1,0-0.2,0c-0.2,0.2-0.9,0.7-1.6,1.6C10.2,5,10,5,10,4.9C8.6,2.1,6.8,0.4,6.4,0
	C6.3,0,6.2,0,6.2,0c-0.8,0.6-6,4.6-6,11.1c0,1,0.2,2,0.6,3c0.4,1,1,1.8,1.7,2.5C3.2,17.4,4.1,18,5,18.4C5.9,18.8,6.9,19,7.9,19
	c-2.4,0-4.4-2-4.4-4.5c0-0.2,0-0.4,0-0.7c0,0,0,0,0,0C4,11.3,6.3,9.2,7.4,8.3C7.8,8,8.3,8,8.6,8.3c1.1,0.9,3.4,3,3.8,5.6
	c0,0,0,0,0,0c0,0.2,0,0.4,0,0.7c0,2.4-2,4.4-4.4,4.5c1,0,2-0.2,2.9-0.6c1-0.4,1.8-1,2.5-1.7c0.7-0.7,1.3-1.6,1.7-2.5
	c0.4-0.9,0.6-1.9,0.6-2.9C15.9,11.3,15.9,11.2,15.9,11.2L15.9,11.2L15.9,11.2z"/>
</svg>
