<?xml version="1.0" encoding="utf-8"?>
<!-- Generator: Adobe Illustrator 26.0.1, SVG Export Plug-In . SVG Version: 6.00 Build 0)  -->
<svg version="1.1" id="Слой_1" xmlns="http://www.w3.org/2000/svg" xmlns:xlink="http://www.w3.org/1999/xlink" x="0px" y="0px"
	 viewBox="0 0 150 180" style="enable-background:new 0 0 150 180;" xml:space="preserve">
<g>
	<path d="M75,53.9c-4.6,2.5-36.3,20.8-36.3,51.1c0,20,16.3,36.2,36.2,36.2s36.2-16.3,36.2-36.2C111.2,74.7,79.6,56.4,75,53.9z
		 M75,128.8c-13.1,0-23.8-10.7-23.8-23.8c0-17.2,14.4-29.9,23-35.9l0.7-0.5l0.7,0.5c8.6,6.1,23,18.9,23,35.9
		C98.8,118.1,88.1,128.8,75,128.8z"/>
	<path d="M75.8,1.5l-0.2-0.1c-0.2-0.1-0.4-0.2-0.7-0.2c-0.2,0-0.5,0-0.6,0.1l-0.2,0.1c-4.8,2.6-30,16.9-49.3,41
		c-0.9,1-2.1,1.6-3.4,1.6c-0.5,0-0.9-0.1-1.3-0.3L3.6,38.3c-0.3-0.1-0.4-0.1-0.6-0.1c-1,0-1.8,0.8-1.8,1.8v69.8h0.2l0.1,1.2
		c3,38.1,35.2,67.9,73.5,67.9c40.7,0,73.8-33.2,73.8-74C148.8,42.6,83.3,5.5,75.8,1.5z M75,166.2c-15.5,0-30.3-5.8-41.6-16.3
		c-11.3-10.5-18.2-24.7-19.4-40.1l-0.2-2.7l0-2.2V54.8l2.5,0.9c1.7,0.5,3.5,0.8,5.3,0.8c5.1,0,9.9-2.3,13.1-6.3
		c13.7-17.1,30.8-28.9,39.7-34.4l0.7-0.4l0.7,0.4c18.2,11.3,60.6,42.6,60.6,89C136.2,138.7,108.8,166.2,75,166.2z"/>
</g>
</svg>
