<?xml version="1.0" encoding="utf-8"?>
<!-- Generator: Adobe Illustrator 26.0.1, SVG Export Plug-In . SVG Version: 6.00 Build 0)  -->
<svg version="1.1" id="Слой_1" xmlns="http://www.w3.org/2000/svg" xmlns:xlink="http://www.w3.org/1999/xlink" x="0px" y="0px"
	 viewBox="0 0 18 24" style="enable-background:new 0 0 18 24;" xml:space="preserve">
<path d="M16.5,11.2c0,0.8-0.7,3.7-2.2,3.7c0.5-0.5,1-2,1-3.1c0-2.1-3.5-3.3-3.5-5.1c0-2.4,0.5-1.6,0.5-3.3c0-1.5-1.9-2.9-1.9-2.9
	C10.4,3.7,4,4.6,4,9.8c0,0.8,0.2,2,0.8,3.3c-1.3,0-2.2-1.5-2.2-3.5c0,0-2.2,2.5-2.2,6.5c0,3.9,3.1,7.5,5.8,7.5h5.3
	c4.1,0,6.1-4.3,6.1-7.5C17.6,13.3,17,12.1,16.5,11.2z"/>
</svg>
