<?xml version="1.0" encoding="utf-8"?>
<!-- Generator: Adobe Illustrator 26.0.1, SVG Export Plug-In . SVG Version: 6.00 Build 0)  -->
<svg version="1.1" id="Слой_1" xmlns="http://www.w3.org/2000/svg" xmlns:xlink="http://www.w3.org/1999/xlink" x="0px" y="0px"
	 viewBox="0 0 190 195" style="enable-background:new 0 0 190 195;" xml:space="preserve">
<g>
	<path d="M128.2,2.5H50.8C24.2,2.5,2.5,24.3,2.5,51.2v121.9c0,10.7,8.7,19.4,19.3,19.4h77.4c26.6,0,48.3-21.8,48.3-48.7V21.9
		C147.5,11.2,138.8,2.5,128.2,2.5z M138,143.8c0,21.6-17.4,39.1-38.8,39.1H21.8c-5.4,0-9.8-4.4-9.8-9.8V51.2
		c0-21.6,17.4-39.1,38.8-39.1h77.4c5.4,0,9.8,4.4,9.8,9.8V143.8z"/>
	<path d="M168.4,2.5C174.2,7,178,14,178,21.9v121.9v1.9v0l0,0c-0.7,20-12,36.9-28.4,45.6c21.7-4.8,37.9-24.3,37.9-47.6V21.9
		C187.5,11.3,179,2.6,168.4,2.5z"/>
</g>
</svg>
