<?xml version="1.0" encoding="utf-8"?>
<!-- Generator: Adobe Illustrator 26.0.1, SVG Export Plug-In . SVG Version: 6.00 Build 0)  -->
<svg version="1.1" id="Слой_1" xmlns="http://www.w3.org/2000/svg" xmlns:xlink="http://www.w3.org/1999/xlink" x="0px" y="0px"
	 viewBox="0 0 23 21" style="enable-background:new 0 0 23 21;" xml:space="preserve">
<path d="M2.9,5.1C2.9,2.3,5.2,0,8,0c2.8,0,5,2.3,5,5.1s-2.2,5.1-5,5.1C5.2,10.2,2.9,7.9,2.9,5.1z"/>
<path d="M4.8,12.5l0.2,0c2-0.3,4-0.3,5.9,0l0.2,0c2.8,0.4,4.8,2.9,4.8,5.7c0,1.5-1.2,2.8-2.7,2.8H2.7C1.2,21,0,19.8,0,18.2
	C0,15.4,2,13,4.8,12.5z"/>
<path d="M15,0c-0.5,0-0.9,0.4-0.9,0.9c0,0.5,0.4,0.9,0.9,0.9c1.8,0,3.2,1.5,3.2,3.3S16.8,8.4,15,8.4c-0.5,0-0.9,0.4-0.9,0.9
	s0.4,0.9,0.9,0.9c2.8,0,5-2.3,5-5.1S17.8,0,15,0z"/>
<path d="M16.5,12.5c-0.5,0-0.9,0.4-0.9,0.9c0,0.5,0.4,0.9,0.9,0.9h1.1c0.1,0,0.2,0,0.3,0c1.9,0.3,3.3,2,3.3,3.9c0,0.5-0.4,1-1,1
	h-2.4c-0.5,0-0.9,0.4-0.9,0.9c0,0.5,0.4,0.9,0.9,0.9h2.4c1.5,0,2.7-1.2,2.7-2.8c0-2.8-2-5.3-4.8-5.7c-0.2,0-0.4,0-0.6,0H16.5z"/>
</svg>
