<?xml version="1.0" encoding="utf-8"?>
<!-- Generator: Adobe Illustrator 26.0.1, SVG Export Plug-In . SVG Version: 6.00 Build 0)  -->
<svg version="1.1" id="Слой_1" xmlns="http://www.w3.org/2000/svg" xmlns:xlink="http://www.w3.org/1999/xlink" x="0px" y="0px"
	 viewBox="0 0 190 195" style="enable-background:new 0 0 190 195;" xml:space="preserve">
<g>
	<path d="M75,99.9c26.6,0,48.3-21.8,48.3-48.7V26.8c0-13.4-10.8-24.3-24.1-24.3H75c-26.6,0-48.3,21.8-48.3,48.7
		C26.7,78.1,48.4,99.9,75,99.9z M75,12.1h24.2c8.1,0,14.6,6.6,14.6,14.7v24.4c0,21.6-17.4,39.1-38.8,39.1S36.2,72.8,36.2,51.2
		C36.2,29.6,53.6,12.1,75,12.1z"/>
	<path d="M147.5,143.8v-4.9c0-10.7-8.7-19.4-19.3-19.4H50.8c-26.6,0-48.3,21.8-48.3,48.7v4.9c0,10.7,8.7,19.4,19.3,19.4h77.4
		C125.8,192.5,147.5,170.7,147.5,143.8z M99.2,182.9H21.8c-5.4,0-9.8-4.4-9.8-9.8v-4.9c0-21.6,17.4-39.1,38.8-39.1h77.4
		c5.4,0,9.8,4.4,9.8,9.8v4.9C138,165.4,120.6,182.9,99.2,182.9z"/>
	<path d="M168.2,119.5h-15.3c3.2,2.5,5.9,5.7,7.6,9.6h7.7c5.4,0,9.8,4.4,9.8,9.8v4.9c0,18.6-13.5,35-31.6,38.4
		c-4.4,4.3-9.3,7.7-14.7,10.3h7.5c26.6,0,48.3-21.8,48.3-48.7v-4.9C187.5,128.2,178.8,119.5,168.2,119.5z"/>
	<path d="M134.4,12.1h4.8c8.1,0,14.6,6.6,14.6,14.7v24.4c0,18.6-13.5,35-31.6,38.4c-4,4-8.7,7.3-13.9,9.8c2.2,0.3,4.4,0.5,6.6,0.5
		c26.6,0,48.3-21.8,48.3-48.7V26.8c0.1-13.4-10.7-24.3-24-24.3h-13.7C129.1,4.9,132.1,8.2,134.4,12.1z"/>
</g>
</svg>
