<?xml version="1.0" encoding="utf-8"?>
<!-- Generator: Adobe Illustrator 26.0.1, SVG Export Plug-In . SVG Version: 6.00 Build 0)  -->
<svg version="1.1" id="Слой_1" xmlns="http://www.w3.org/2000/svg" xmlns:xlink="http://www.w3.org/1999/xlink" x="0px" y="0px"
	 viewBox="0 0 175 195" style="enable-background:new 0 0 175 195;" xml:space="preserve">
<path d="M2.5,110.9v73.3c0,4.5,4.1,8.2,9.2,8.2h151.7c5.1,0,9.2-3.7,9.2-8.2v-73.3c0-11-4-21.8-11.1-30.6l-57.2-70.1
	c-4-4.9-10.1-7.7-16.8-7.7c-6.6,0-12.7,2.8-16.8,7.7L13.6,80.3C6.5,89.1,2.5,99.9,2.5,110.9z M15,110.9c0-9.1,3.2-18.1,9.1-25.2
	l57.2-70.1c1.6-2,3.8-3.1,6.2-3.1c2.5,0,4.7,1.1,6.3,3.2l57.2,70.1c5.8,7.1,9.1,16.1,9.1,25.2v71.6H15V110.9z"/>
</svg>
