<?xml version="1.0" encoding="utf-8"?>
<!-- Generator: Adobe Illustrator 26.0.1, SVG Export Plug-In . SVG Version: 6.00 Build 0)  -->
<svg version="1.1" id="Слой_1" xmlns="http://www.w3.org/2000/svg" xmlns:xlink="http://www.w3.org/1999/xlink" x="0px" y="0px"
	 viewBox="0 0 23 23" style="enable-background:new 0 0 23 23;" xml:space="preserve">
<g>
	<path d="M13.4,9l-2.5,1c-0.4,0.2-0.8,0.5-1,1l-1,2.5c-0.2,0.4,0.2,0.8,0.6,0.6l2.5-1c0.4-0.2,0.8-0.5,1-1l1-2.5
		C14.2,9.2,13.8,8.8,13.4,9z"/>
	<path d="M22.6,7.7c-0.8-3.6-3.7-6.4-7.3-7.3c-2.5-0.6-5.1-0.6-7.6,0C4.1,1.3,1.3,4.1,0.4,7.7c-0.6,2.5-0.6,5.1,0,7.6
		c0.8,3.6,3.7,6.4,7.3,7.3c2.5,0.6,5.1,0.6,7.6,0c3.6-0.8,6.4-3.7,7.3-7.3C23.1,12.8,23.1,10.2,22.6,7.7z M15.4,10.1l-1,2.5
		c-0.3,0.8-1,1.4-1.8,1.8l-2.5,1C8.5,16,7,14.5,7.6,12.9l1-2.5c0.3-0.8,1-1.4,1.8-1.8l2.5-1C14.5,7,16,8.5,15.4,10.1z"/>
</g>
</svg>
