<?xml version="1.0" encoding="utf-8"?>
<!-- Generator: Adobe Illustrator 26.0.1, SVG Export Plug-In . SVG Version: 6.00 Build 0)  -->
<svg version="1.1" id="Слой_1" xmlns="http://www.w3.org/2000/svg" xmlns:xlink="http://www.w3.org/1999/xlink" x="0px" y="0px"
	 viewBox="0 0 150 195" xml:space="preserve">
<g>
	<path d="M75,102.4c28,0,50.8-23,50.8-51.2V26.8C125.8,12,113.9,0,99.2,0H75C47,0,24.2,23,24.2,51.2S47,102.4,75,102.4z M75,14.6
		h24.2c6.7,0,12.1,5.5,12.1,12.2v24.4c0,20.2-16.3,36.6-36.3,36.6S38.7,71.3,38.7,51.2S55,14.6,75,14.6z"/>
	<path d="M128.2,117H50.8C22.8,117,0,140,0,168.2v4.9C0,185.2,9.8,195,21.8,195h77.4c28,0,50.8-23,50.8-51.2v-4.9
		C150,126.8,140.2,117,128.2,117z M135.5,143.8c0,20.2-16.3,36.6-36.3,36.6H21.8c-4,0-7.3-3.3-7.3-7.3v-4.9
		c0-20.2,16.3-36.6,36.3-36.6h77.4c4,0,7.3,3.3,7.3,7.3V143.8z"/>
</g>
</svg>
