<?xml version="1.0" encoding="utf-8"?>
<svg version="1.1" id="Слой_1" xmlns="http://www.w3.org/2000/svg" xmlns:xlink="http://www.w3.org/1999/xlink" x="0px" y="0px"
	 viewBox="0 0 150 195" xml:space="preserve">
<g>
	<path d="M75,100L75,100c27.6,0,50-22.4,50-50V25c0-13.8-11.2-25-25-25H75C47.4,0,25,22.4,25,50v0C25,77.6,47.4,100,75,100z M75,10
		h25c8.3,0,15,6.7,15,15v25c0,22.1-17.9,40-40,40c-22.1,0-40-17.9-40-40S52.9,10,75,10z"/>
	<path d="M130,120H50c-27.6,0-50,22.4-50,50v5c0,11,9,20,20,20h80c27.6,0,50-22.4,50-50v-5C150,129,141,120,130,120z M140,145
		c0,22.1-17.9,40-40,40H20c-5.5,0-10-4.5-10-10v-5c0-22.1,17.9-40,40-40h80c5.5,0,10,4.5,10,10V145z"/>
</g>
</svg>
