<?xml version="1.0" encoding="utf-8"?>
<!-- Generator: Adobe Illustrator 26.0.1, SVG Export Plug-In . SVG Version: 6.00 Build 0)  -->
<svg version="1.1" id="Слой_1" xmlns="http://www.w3.org/2000/svg" xmlns:xlink="http://www.w3.org/1999/xlink" x="0px" y="0px"
	 viewBox="0 0 150 195" xml:space="preserve">
<path d="M128.2,0H50.8C22.8,0,0,23,0,51.2v121.9C0,185.2,9.8,195,21.8,195h77.4c28,0,50.8-23,50.8-51.2V21.9
	C150,9.8,140.2,0,128.2,0z M99.2,180.4H21.8c-4,0-7.3-3.3-7.3-7.3V51.2c0-20.2,16.3-36.6,36.3-36.6h77.4c4,0,7.3,3.3,7.3,7.3v121.9
	C135.5,164,119.2,180.4,99.2,180.4z"/>
</svg>
