<?xml version="1.0" encoding="utf-8"?>
<!-- Generator: Adobe Illustrator 26.0.1, SVG Export Plug-In . SVG Version: 6.00 Build 0)  -->
<svg version="1.1" id="Слой_1" xmlns="http://www.w3.org/2000/svg" xmlns:xlink="http://www.w3.org/1999/xlink" x="0px" y="0px"
	 viewBox="0 0 150 195" style="enable-background:new 0 0 150 195;" xml:space="preserve">
<g>
	<path d="M128.2,2.5H50.8C24.2,2.5,2.5,24.3,2.5,51.2v121.9c0,10.7,8.7,19.4,19.3,19.4h77.4c26.6,0,48.3-21.8,48.3-48.7V21.9
		C147.5,11.2,138.8,2.5,128.2,2.5z M138,143.8c0,21.6-17.4,39.1-38.8,39.1H21.8c-5.4,0-9.8-4.4-9.8-9.8V51.2
		c0-21.6,17.4-39.1,38.8-39.1h77.4c5.4,0,9.8,4.4,9.8,9.8V143.8z"/>
	<path d="M106.9,76.3L66.2,117l-1.8,1.8l-1.8-1.8L34.5,88.8c-1.4,2.1-2.1,4.5-2.1,7c0,3.3,1.3,6.4,3.7,8.7l19.4,19.4
		c2.4,2.4,5.5,3.7,8.9,3.7c3.3,0,6.4-1.3,8.8-3.7l49.3-49.3c-2-1.3-4.3-2-6.8-2C112.3,72.6,109.2,73.9,106.9,76.3z"/>
</g>
</svg>
