<?xml version="1.0" encoding="utf-8"?>
<!-- Generator: Adobe Illustrator 26.0.1, SVG Export Plug-In . SVG Version: 6.00 Build 0)  -->
<svg version="1.1" id="Слой_1" xmlns="http://www.w3.org/2000/svg" xmlns:xlink="http://www.w3.org/1999/xlink" x="0px" y="0px"
	 viewBox="0 0 19 18" style="enable-background:new 0 0 19 18;" xml:space="preserve">
<g>
	<path d="M13.1,8c-0.4-0.3-1.1-0.5-1.9-0.5C10.4,7.6,9.8,7.7,9.3,8C9.1,8.2,8.9,8.3,8.9,8.5s0.1,0.3,0.3,0.4
		c0.4,0.3,1.1,0.5,1.9,0.5c0.8,0,1.4-0.2,1.9-0.5c0.2-0.1,0.3-0.3,0.3-0.4C13.3,8.3,13.2,8.2,13.1,8z"/>
	<path d="M8.9,11.3v0.6c0,0.2,0.1,0.3,0.3,0.4c0.4,0.3,1.1,0.5,1.9,0.5s1.4-0.2,1.9-0.5c0.2-0.1,0.3-0.3,0.3-0.4v-0.6
		c-0.5,0.3-1.3,0.5-2.2,0.5C10.2,11.9,9.6,11.7,8.9,11.3z"/>
	<path d="M8.9,9.6v0.6c0,0.2,0.1,0.3,0.3,0.4c0.4,0.3,1.1,0.5,1.9,0.5s1.4-0.2,1.9-0.5c0.2-0.1,0.3-0.3,0.3-0.4V9.6
		c-0.5,0.3-1.3,0.5-2.2,0.5S9.6,9.9,8.9,9.6z"/>
	<path d="M10.9,0h-3c-4.4,0-8,3.6-8,8v2c0,4.4,3.6,8,8,8h3.1c4.4,0,8-3.6,8-8V8C19,3.6,15.3,0,10.9,0z M7.8,5.2
		c-0.8,0-1.4,0.2-1.9,0.5C5.6,5.8,5.5,5.9,5.5,6.1c0,0.1,0.1,0.3,0.3,0.4C6.1,6.7,6.6,6.9,7.3,7c0.2,0,0.4,0.2,0.4,0.4
		c0,0.2-0.2,0.4-0.4,0.4C6.5,7.7,5.9,7.5,5.5,7.2v0.6c0,0.2,0.1,0.3,0.3,0.4c0.3,0.2,0.6,0.4,1.1,0.4c0.2,0,0.4,0.2,0.3,0.4
		c0,0.2-0.2,0.4-0.4,0.3c-0.6,0-1-0.1-1.3-0.3v0.6c0,0.1,0.1,0.3,0.3,0.4c0.3,0.3,0.9,0.4,1.5,0.5c0.2,0,0.4,0.2,0.4,0.4
		s-0.2,0.4-0.4,0.4c-0.8-0.1-1.5-0.3-2-0.7c-0.4-0.3-0.6-0.6-0.6-1V7.8l0,0V6.1l0,0c0-0.4,0.2-0.8,0.7-1.1c0.5-0.4,1.4-0.6,2.3-0.6
		S9.6,4.6,10.1,5c0.4,0.3,0.7,0.7,0.7,1.1c0,0.2-0.2,0.4-0.4,0.4S10,6.3,10,6.1c0-0.2-0.1-0.3-0.3-0.4C9.1,5.4,8.4,5.2,7.8,5.2z
		 M14.1,10.2v1.7c0,0.4-0.2,0.8-0.7,1.1c-0.5,0.4-1.4,0.6-2.3,0.6c-0.9,0-1.8-0.2-2.3-0.6c-0.4-0.3-0.7-0.7-0.7-1.1v-1.7V8.5
		c0-0.4,0.2-0.8,0.7-1.1c0.5-0.4,1.4-0.6,2.3-0.6s1.8,0.2,2.3,0.6c0.4,0.3,0.7,0.7,0.7,1.1V10.2z"/>
</g>
</svg>
