<?xml version="1.0" encoding="utf-8"?>
<!-- Generator: Adobe Illustrator 26.0.1, SVG Export Plug-In . SVG Version: 6.00 Build 0)  -->
<svg version="1.1" id="Слой_1" xmlns="http://www.w3.org/2000/svg" xmlns:xlink="http://www.w3.org/1999/xlink" x="0px" y="0px"
	 viewBox="0 0 18 18" style="enable-background:new 0 0 18 18;" xml:space="preserve">
<style type="text/css">
	.st0{fill-rule:evenodd;clip-rule:evenodd;}
</style>
<g>
	<path class="st0" d="M6.9,8.7c2.4,0,4.4-2,4.4-4.4C11.3,2,9.4,0,6.9,0C4.5,0,2.6,2,2.6,4.4C2.6,6.8,4.5,8.7,6.9,8.7z"/>
	<path class="st0" d="M9.7,10.7l-0.2,0c-1.7-0.3-3.5-0.3-5.2,0l-0.2,0C1.8,11.1,0,13.2,0,15.6C0,16.9,1.1,18,2.4,18h9.1
		c1.3,0,2.4-1.1,2.4-2.4C13.9,13.2,12.1,11.1,9.7,10.7z"/>
	<path class="st0" d="M17.2,8.2h-1.3V6.9c0-0.4-0.3-0.8-0.8-0.8c-0.4,0-0.8,0.3-0.8,0.8v1.3h-1.3c-0.4,0-0.8,0.3-0.8,0.8
		s0.3,0.8,0.8,0.8h1.3v1.3c0,0.4,0.3,0.8,0.8,0.8c0.4,0,0.8-0.3,0.8-0.8V9.8h1.3C17.7,9.8,18,9.4,18,9S17.7,8.2,17.2,8.2z"/>
</g>
</svg>
