<?xml version="1.0" encoding="utf-8"?>
<!-- Generator: Adobe Illustrator 26.0.1, SVG Export Plug-In . SVG Version: 6.00 Build 0)  -->
<svg version="1.1" id="Слой_1" xmlns="http://www.w3.org/2000/svg" xmlns:xlink="http://www.w3.org/1999/xlink" x="0px" y="0px"
	 viewBox="0 0 18 18" style="enable-background:new 0 0 18 18;" xml:space="preserve">
<g>
	<path d="M9,7.8C8.3,7.8,7.8,8.3,7.8,9c0,0.3,0.1,0.6,0.4,0.9c0.2,0.2,0.6,0.4,0.9,0.4c0.7,0,1.2-0.6,1.2-1.2
		C10.2,8.3,9.7,7.8,9,7.8z"/>
	<path d="M17.7,6C17,3.2,14.8,1,12,0.3c-2-0.5-4-0.5-5.9,0C3.2,1,1,3.2,0.3,6c-0.5,2-0.5,4,0,5.9C1,14.8,3.2,17,6,17.7
		c2,0.5,4,0.5,5.9,0c2.8-0.7,5-2.9,5.7-5.7C18.1,10,18.1,8,17.7,6z M13,10.5c0,0.7-0.3,1.3-0.7,1.8c-0.5,0.5-1.1,0.7-1.8,0.7h-3
		c-0.7,0-1.3-0.3-1.8-0.7C5.3,11.8,5,11.2,5,10.5v-3c0-0.7,0.3-1.3,0.7-1.8C6.2,5.3,6.8,5,7.5,5h3c0.7,0,1.3,0.3,1.8,0.7
		C12.7,6.2,13,6.8,13,7.5V10.5z"/>
	<path d="M10.5,5.8h-3c-1,0-1.8,0.8-1.8,1.8v3c0,1,0.8,1.8,1.8,1.8h3c1,0,1.8-0.8,1.8-1.8v-3C12.2,6.5,11.5,5.8,10.5,5.8z
		 M10.4,10.4C10,10.8,9.5,11,9,11c-0.5,0-1-0.2-1.4-0.6C7.2,10,7,9.5,7,9c0-0.5,0.2-1,0.6-1.4C8,7.2,8.5,7,9,7c0.5,0,1,0.2,1.4,0.6
		C10.8,8,11,8.5,11,9C11,9.5,10.8,10,10.4,10.4z M11.1,7.1c-0.1,0-0.3-0.1-0.3-0.3c0-0.1,0.1-0.3,0.3-0.3c0.1,0,0.3,0.1,0.3,0.3
		C11.4,7,11.3,7.1,11.1,7.1z"/>
</g>
</svg>
