<?xml version="1.0" encoding="utf-8"?>
<!-- Generator: Adobe Illustrator 26.0.1, SVG Export Plug-In . SVG Version: 6.00 Build 0)  -->
<svg version="1.1" id="Слой_1" xmlns="http://www.w3.org/2000/svg" xmlns:xlink="http://www.w3.org/1999/xlink" x="0px" y="0px"
	 viewBox="0 0 18 18" style="enable-background:new 0 0 18 18;" xml:space="preserve">
<style type="text/css">
	.st0{fill-rule:evenodd;clip-rule:evenodd;}
</style>
<path class="st0" d="M17.7,6C17,3.2,14.8,1,12,0.3c-2-0.5-4-0.5-5.9,0C3.2,1,1,3.2,0.3,6c-0.5,2-0.5,4,0,5.9C1,14.8,3.2,17,6,17.7
	c2,0.5,4,0.5,5.9,0c2.8-0.7,5-2.9,5.7-5.7C18.1,10,18.1,8,17.7,6z M12.5,7.6c0,0.3-0.1,0.6-0.1,0.9c-0.3,1.7-0.6,3.5-0.6,3.5
	s0,0.5-0.4,0.6c-0.4,0-0.8-0.1-1.1-0.4c0,0-0.1-0.1-0.2-0.2c-0.5-0.3-1.5-1-2-1.4c-0.1,0-0.1-0.1-0.1-0.2c0-0.1,0-0.1,0-0.2
	c0-0.1,0-0.1,0.1-0.2C7.9,10,8,9.9,8,9.9c0.8-0.7,1.6-1.5,2.3-2.2c0.3-0.3,0.5-0.9-0.6-0.1C8.8,8.3,7.7,9,6.7,9.7
	C6.5,9.7,6.3,9.8,6.2,9.8c-0.2,0-0.3,0-0.5-0.1C5,9.5,4.2,9.2,4.2,9.2S3.7,8.9,4.6,8.5c0,0,3.8-1.6,5.1-2.1C10.3,6.2,12,5.5,12,5.5
	s0.8-0.3,0.7,0.4C12.7,6.2,12.6,6.8,12.5,7.6z"/>
</svg>
