<?xml version="1.0" encoding="utf-8"?>
<!-- Generator: Adobe Illustrator 26.0.1, SVG Export Plug-In . SVG Version: 6.00 Build 0)  -->
<svg version="1.1" id="Слой_1" xmlns="http://www.w3.org/2000/svg" xmlns:xlink="http://www.w3.org/1999/xlink" x="0px" y="0px"
	 viewBox="0 0 18 18" style="enable-background:new 0 0 18 18;" xml:space="preserve">
<style type="text/css">
	.st0{fill-rule:evenodd;clip-rule:evenodd;}
</style>
<path class="st0" d="M17.7,6C17,3.2,14.8,1,12,0.3c-2-0.5-4-0.5-5.9,0C3.2,1,1,3.2,0.3,6c-0.5,2-0.5,4,0,5.9C1,14.8,3.2,17,6,17.7
	c2,0.5,4,0.5,5.9,0c2.8-0.7,5-2.9,5.7-5.7C18.1,10,18.1,8,17.7,6z M12.4,7.8c0,0.1,0,0.1,0,0.2c0,2.3-1.8,5-5,5
	c-1,0-1.9-0.3-2.7-0.8c0.1,0,0.3,0,0.4,0c0.8,0,1.6-0.3,2.2-0.7c-0.4,0-0.7-0.1-1-0.4c-0.3-0.2-0.5-0.5-0.6-0.9c0.1,0,0.2,0,0.3,0
	c0.2,0,0.3,0,0.5-0.1c-0.4-0.1-0.8-0.3-1-0.6C5.2,9.3,5.1,8.9,5.1,8.5v0c0.2,0.1,0.5,0.2,0.8,0.2C5.5,8.4,5.2,8.1,5.1,7.6
	C5,7.2,5.1,6.7,5.3,6.3c0.4,0.5,1,1,1.6,1.3c0.6,0.3,1.3,0.5,2,0.5c0-0.1,0-0.3,0-0.4c0-0.4,0.1-0.7,0.3-1C9.4,6.5,9.7,6.3,10,6.1
	s0.7-0.2,1-0.1c0.3,0.1,0.7,0.3,0.9,0.5c0.4-0.1,0.8-0.2,1.1-0.4c-0.1,0.4-0.4,0.8-0.8,1c0.3,0,0.7-0.1,1-0.3
	C13,7.2,12.7,7.5,12.4,7.8z"/>
</svg>
