<?xml version="1.0" encoding="utf-8"?>
<!-- Generator: Adobe Illustrator 26.0.1, SVG Export Plug-In . SVG Version: 6.00 Build 0)  -->
<svg version="1.1" id="Слой_1" xmlns="http://www.w3.org/2000/svg" xmlns:xlink="http://www.w3.org/1999/xlink" x="0px" y="0px"
	 viewBox="0 0 18 18" style="enable-background:new 0 0 18 18;" xml:space="preserve">
<g>
	<path d="M8.1,7.7v2.4c0.4-0.2,0.8-0.4,1.2-0.6c0.4-0.2,0.8-0.4,1.1-0.6C9.8,8.6,9.3,8.3,8.8,8C8.6,7.9,8.3,7.8,8.1,7.7z"/>
	<path d="M17.7,6C17,3.2,14.8,1,12,0.3c-2-0.5-4-0.5-5.9,0C3.2,1,1,3.2,0.3,6c-0.5,2-0.5,4,0,5.9C1,14.8,3.2,17,6,17.7
		c2,0.5,4,0.5,5.9,0c2.8-0.7,5-2.9,5.7-5.7C18.1,10,18.1,8,17.7,6z M13.2,9.9c0,0.8-0.1,1-0.2,1.3c0,0.1-0.1,0.3-0.2,0.4
		c-0.2,0.2-0.4,0.3-0.6,0.3c-1.4,0.1-2.6,0.1-3.9,0.1l0,0c-1.6,0-2.1-0.1-2.5-0.1c-0.2,0-0.4-0.1-0.6-0.3C5.1,11.4,5,11.2,5,11
		c-0.1-0.2-0.1-0.4-0.1-0.8c-0.1-0.9-0.1-1.6,0-2.5c0,0,0-0.1,0-0.1c0-0.4,0.1-0.9,0.4-1.2c0.2-0.1,0.4-0.2,0.6-0.3
		C6.1,6.1,7.5,6,9,6c1.5,0,2.9,0,3.2,0.1c0.3,0,0.5,0.2,0.7,0.4c0.3,0.4,0.3,1,0.3,1.4c0,0,0,0.1,0,0.1C13.2,8.4,13.2,9.6,13.2,9.9z
		"/>
</g>
</svg>
