<?xml version="1.0" encoding="utf-8"?>
<!-- Generator: Adobe Illustrator 26.0.1, SVG Export Plug-In . SVG Version: 6.00 Build 0)  -->
<svg version="1.1" id="Слой_1" xmlns="http://www.w3.org/2000/svg" xmlns:xlink="http://www.w3.org/1999/xlink" x="0px" y="0px"
	 viewBox="0 0 150 180" xml:space="preserve">
<g>
	<path class="st0" d="M75,52.5c0,0-37.5,18.8-37.5,52.5v0c0,20.7,16.8,37.5,37.5,37.5s37.5-16.8,37.5-37.5v0
		C112.5,71.3,75,52.5,75,52.5z M75,127.5c-12.4,0-22.5-10.1-22.5-22.5c0-16.5,13.8-28.8,22.5-34.9c8.6,6.1,22.5,18.4,22.5,34.9
		C97.5,117.4,87.4,127.5,75,127.5z"/>
	<path class="st0" d="M76.4,0.4C76,0.1,75.5,0,75,0c-0.5,0-1,0.1-1.4,0.4C67.5,3.7,43,17.9,23.9,41.7c-0.6,0.7-1.5,1.1-2.4,1.1
		c-0.3,0-0.6-0.1-0.9-0.2L4,37.1c-0.3-0.1-0.6-0.2-1-0.2c-1.6,0-3,1.3-3,3v64.9v0v6.1h0.3C3.3,149.6,35.6,180,75,180
		c41.4,0,75-33.7,75-75.2v0C150,42.9,86.8,6,76.4,0.4z M75,165c-15.2,0-29.7-5.7-40.8-16c-11.1-10.3-17.8-24.2-19-39.3L15,107v-2.1
		V56.6l0.8,0.3c1.9,0.6,3.8,0.9,5.7,0.9c5.5,0,10.6-2.5,14.1-6.8C49.1,34.2,65.9,22.5,75,16.9c16.6,10.3,60,41.6,60,87.9
		C135,138,108.1,165,75,165z"/>
</g>
</svg>
