<?xml version="1.0" encoding="utf-8"?>
<!-- Generator: Adobe Illustrator 26.0.1, SVG Export Plug-In . SVG Version: 6.00 Build 0)  -->
<svg version="1.1" id="Слой_1" xmlns="http://www.w3.org/2000/svg" xmlns:xlink="http://www.w3.org/1999/xlink" x="0px" y="0px"
	 viewBox="0 0 200 200" style="enable-background:new 0 0 200 200;" xml:space="preserve">
<style type="text/css">
	.sstt0{fill:#CC8358;}
	.sstt1{fill:#23C924;}
</style>
<g>
	<path class="sstt0" d="M100,0C44.8,0,0,44.8,0,100s44.8,100,100,100s100-44.8,100-100S155.2,0,100,0z M167.1,167.1
		c-8.7,8.7-18.9,15.6-30.2,20.3c-11.7,4.9-24.1,7.5-36.9,7.5s-25.2-2.5-36.9-7.5c-11.3-4.8-21.4-11.6-30.2-20.3
		c-8.7-8.7-15.6-18.9-20.3-30.2c-4.9-11.7-7.5-24.1-7.5-36.9s2.5-25.2,7.5-36.9c4.8-11.3,11.6-21.4,20.3-30.2
		c8.7-8.7,18.9-15.6,30.2-20.3C74.8,7.7,87.2,5.2,100,5.2s25.2,2.5,36.9,7.5c11.3,4.8,21.4,11.6,30.2,20.3
		c8.7,8.7,15.6,18.9,20.3,30.2c4.9,11.7,7.5,24.1,7.5,36.9s-2.5,25.2-7.5,36.9C182.6,148.2,175.8,158.4,167.1,167.1z"/>
	<path class="sstt0" d="M99.6,20.4c-43.8,0-79.2,35.5-79.2,79.2s35.5,79.2,79.2,79.2s79.2-35.5,79.2-79.2S143.4,20.4,99.6,20.4z
		 M175,99.6c0,10.2-2,20-5.9,29.3c-3.8,9-9.2,17-16.2,24c-6.9,6.9-15,12.4-24,16.2c-9.3,3.9-19.2,5.9-29.3,5.9s-20-2-29.3-5.9
		c-9-3.8-17-9.2-24-16.2c-6.9-6.9-12.4-15-16.2-24c-3.9-9.3-5.9-19.2-5.9-29.3s2-20,5.9-29.3c3.8-9,9.2-17,16.2-24
		c6.9-6.9,15-12.4,24-16.2c9.3-3.9,19.2-5.9,29.3-5.9s20,2,29.3,5.9c9,3.8,17,9.2,24,16.2c6.9,6.9,12.4,15,16.2,24
		C173,79.6,175,89.4,175,99.6z"/>
</g>
<path class="sstt1" d="M62.9,121.6l19.8,19.8l48.2-48.2l12,12l7.8-42.1l-44.8,5.5l12.5,12.5l-35.3,35.3L62.8,96.2l-32.9,32.9
	c2.5,5.8,5.6,11.2,9.4,16.2L62.9,121.6z"/>
</svg>
