<?xml version="1.0" encoding="utf-8"?>
<!-- Generator: Adobe Illustrator 26.0.1, SVG Export Plug-In . SVG Version: 6.00 Build 0)  -->
<svg version="1.1" id="Слой_1" xmlns="http://www.w3.org/2000/svg" xmlns:xlink="http://www.w3.org/1999/xlink" x="0px" y="0px"
	 viewBox="0 0 200 200" style="enable-background:new 0 0 200 200;" xml:space="preserve">
<g>
	<path d="M100,0L100,0C44.8,0,0,44.8,0,100v0c0,55.2,44.8,100,100,100h0c55.2,0,100-44.8,100-100v0C200,44.8,155.2,0,100,0z
		 M100,190c-49.6,0-90-40.4-90-90c0-49.6,40.4-90,90-90c49.6,0,90,40.4,90,90S149.6,190,100,190z"/>
	<path d="M90,65v10h10c5.5,0,10-4.5,10-10V55h-10C94.5,55,90,59.5,90,65z"/>
	<path d="M90,95v5v45h10c5.5,0,10-4.5,10-10v-5V85h-10C94.5,85,90,89.5,90,95z"/>
</g>
</svg>
