<?xml version="1.0" encoding="utf-8"?>
<!-- Generator: Adobe Illustrator 26.0.1, SVG Export Plug-In . SVG Version: 6.00 Build 0)  -->
<svg version="1.1" id="Слой_1" xmlns="http://www.w3.org/2000/svg" xmlns:xlink="http://www.w3.org/1999/xlink" x="0px" y="0px"
	 viewBox="0 0 332 200" style="enable-background:new 0 0 332 200;" xml:space="preserve">
<style type="text/css">
	.st0{opacity:0.5;fill:#F3512A;}
	.st1{opacity:0.2;fill:#FD8F01;}
</style>
<g>
	<path class="st0" d="M318.5,128.7c-0.8-4.5,4.3-0.4,8.5-4.1c4.2-3.7-1.6-10.8-2-10.3c-0.4,0.5-11.8-6.3-19.9-12.5
		c-8.1-6.2,18.7-8.4,21.5-10c2.8-1.6-6.1-12.2-4.9-12.6c1.2-0.4-2-14.6-5.3-17.1c-3.2-2.4,6.9-6.8,6.9-6.8s-14.6-16.7-12.2-19.2
		c2.4-2.4,0,0-4.9-1.6c-4.9-1.6-9.2-8.1-9.7-10.6s-3.3-13.3-3.3-13.3l-23.1,14.1c0,0,6.7-4.1,8.1-11.5c1.4-7.4-12.1-3.5-12.1-3.5
		s-5.2,2.3-15,0.9c-9.8-1.4-4.1,0.3-11.5-3.1s-6.8,9.5-11.7,16.8c-4.9,7.3,0,0-9.3-3.6c-9.3-3.6-5.4,0.7-5.4,0.7l6.5,20.4
		c0,0-10.2,3.5-16.6,6.3c-6.5,2.8-5.3,5.8-6.1,7.1c-0.8,1.3,4.2,16.5,6.5,19c2.3,2.6-2.3,2.8-8.5,4.1c-6.2,1.2,0.3,6.9-2.5,11
		c-2.9,4.1-1.2,20.3,0,23.1c1.2,2.8,8.7,6.5,11,6.9c2.3,0.4-2.3,12-2.3,12s0.3,7.1,9.6,10.3s0,0-7.7,0.8c-7.7,0.8,2,10.2,6.5,20.7
		c1.7,4,1.9,6.5,1.6,8c2.2-0.3,6.9,0.5,18.7-0.7c16.2-1.6,2.4,10.3,4.7,14.2c2.3,3.9,3.8,6.3,3.8,6.3s0,0,1.2,0
		c1.2,0,16.2,1,20.9,2.2c4.6,1.2,14.1,0.8,18.5-2.2c4.5-3.1,11.6-2.6,11.6-2.6s7.7-10.1,8.3-10.3c0.5-0.2,4.9-1.9,12.2-1.5
		c7.3,0.4,6.9-5.3,4.1-12.2c-2.8-6.9-3.7-9.7-5.3-16.6c-1.6-6.9,10.6-1.5,14.2-3.3c3.6-1.8,7.8,0,7.8,0S319.3,133.2,318.5,128.7z
		 M289,87.2c-3.4,0.9-4.2,7.6-1.4,10.8c2.8,3.2-6.9,2.6-4.7,6.7c2.2,4.1,5.3,3.7,2.3,11c-2.9,7.3,3.1,5.3,7,9.7
		c3.9,4.5-1.6,10.2-7,15.4s-7.8,7.3-7.8,10.3c0,3.1,6.9,9.1-1.6,7.5c-8.5-1.6-6.1,0.3-12.2-3.6c-6.1-3.9-27.2-1.1-19.9-7.6
		c7.3-6.5,6.3-15-6.1-15c-12.4,0,5.7-3.5,5.7-3.5c-6.1-6.1-20.8-14.4-12.3-17.3c8.5-2.8,5.2-4.1,3.1-4.9c-2-0.8-2.6,0.5,0.2-7.2
		c2.8-7.7-1.4-14.6-1.8-15.8c-0.4-1.2-5.1-14.6-5.1-14.6c1.6,1.6,10.6,4.1,10.2,2.4c-0.4-1.6-10.6-2.4-2.4-8.5
		c8.1-6.1,4.5-16.6,4.5-16.6s14.9-0.7,20.9,2.7c5.9,3.4,12.8-3.7,12.8-3.7l11.9,8.9c0,0-15.1,4.7-7,7.5c8.1,2.8,13.4,2.8,9.3,4.9
		c-4.1,2-4.7,8.1-1,10.2C290.3,79.2,292.5,86.4,289,87.2z"/>
	<path class="st0" d="M209.7,172.2c-0.8,1.3,1.1,1.6,1.6-0.9C210.5,171.4,210,171.6,209.7,172.2z"/>
</g>
<g>
	<path class="st1" d="M283,11.6c2.8-1,4.7-1.8,4.7-1.8S284.8,10.4,283,11.6z"/>
	<path class="st1" d="M323.4,107.6c-6.1-0.8-10.2-7.8-10.2-7.8s17.5-15,11.4-17.4c-6.1-2.4-4-6.9-4-6.9s10.5-13.8,8.1-16.2
		c-2.4-2.4-4.1-3.2-5.3-4c-1.2-0.7-10.6-2.1-19.7-4.5c-9.1-2.4,14-14.2,16.9-15.4c2.9-1.2-9.8-5.3-16.9-5.1
		c-7.1,0.2-7.1-6.3-7.1-6.3s-3.2-2.2-11.9-6.9c-4.4-2.4-3.6-4.2-1.7-5.4c-3.8,1.4-9.4,3.3-14,4.2c-8,1.5-8.1-1.2-12.3-3.6
		c-4.2-2.3-2.3-2.5-3.2-7c-0.8-4.5-6.9,0-9.3,0c-1.9,0-6.8,4.1-10.4,6c-1,0.5-2,0.9-2.7,0.9c0,0-6.8,0-11.7,3.3
		c-4.9,3.3,3.9,10,3.7,16.6c-0.3,6.6-2.4,0-13-1.2c-10.6-1.2-4.5,2.4-8.8,6.9c-4.3,4.5-0.9,15,0,17.5c0.9,2.5,1.2,4.7,2.7,7.2
		c1.5,2.6,6.9,13,9.7,19.9c2.8,6.9-1.2,6.5-12.5,6.9c-11.2,0.4-3,8.1-6.8,10.5c-3.8,2.4-0.6,2.5,0,4.9c0.6,2.4,4.7,9.3,9.1,14.6
		c4.5,5.3,4.5,11-0.4,14.6c-4.9,3.7-0.9,8.5-4,11c-3.1,2.5,3.5-0.7,15.8,8.1c12.3,8.9,0,0-10.6,6.1c-10.6,6.1-1.6,4.1-3.1,8.9
		c-1.5,4.9,13.2,0.7,20.6-0.8c7.4-1.5,9.2,5.7,9.2,5.7l1.9,11.1l13,5.1c0,0,8.8,12.7,11.2,10.6c2.4-2,10.6-2,15.8-8.7
		c5.3-6.7,6.3-2.9,7-5.5c0.8-2.6,15.6-5.7,23.8-9.3c8.2-3.7,4.9-3.7,6-10.8c1.2-7.2,0,0,2.6-4.2c2.6-4.2,12-7.7,12-10
		c0-2.2-5.7-6-8.5-8.7c-2.9-2.7,8.5-6.5,7.3-8.9c-1.2-2.4,0-8.1-0.8-11s1.6-8.1,4.5-10.6C329.9,109.6,329.4,108.4,323.4,107.6z
		 M289.2,104.8c1.2,3.7-6.5,4.5-3.7,8.5c2.8,4.1,8.1,3.7,6.1,9.7s-4.1,6.5-6.1,8.9c-2,2.4,4.6,6.9,5.1,11c0.6,4.1,3.8,5.3-2.7,8.3
		c-6.5,3.1-9.7,5.2-11.2,5.3c-1.4,0.2,3.9-3.8-3.9,0c-7.7,3.8-8.8,4.6-12.1,4.6c-3.3,0-12.3-3.6-9-6c3.2-2.5,19.5-6.2,5.7-3.9
		c-13.8,2.2-13.8,10-16.6,1c-2.8-8.9-11.8-18.7-2.8-21.9c8.9-3.2,14.6-4.5,5.7-8.1c-8.9-3.7-11.4-5.3-13.4-9.3
		c-2-4.1-12.2-8-6.5-11.1c5.7-3.1,13-4.7,15-6c2-1.2,6.9-0.8,0-6.9c-6.9-6.1-12.5-15.3-10.2-16.2c2.3-0.9,5.3-4.9,5.3-4.9
		s-11.8-5.3-6.9-7.7c4.9-2.4,1.6-6.4,8.9-4.8c7.3,1.6,13.4-0.9,15-2.5c1.6-1.6,3.7-3.4,3.7-3.4s5.7-1.7,13-1
		c7.3,0.7,10.6,1.5,10.6,3.6c0,2-1.6,4.5,2,5.3c3.7,0.8,7.3-1.6,3.7,0.8c-3.7,2.4-11.6,0.7-2.4,7.2c9.2,6.5,15,8.6,9.7,9
		c-5.3,0.4-13,0.6-1.6,6.3c11.4,5.7,9.3,10.8,9.3,10.8s-7.2,5.7-8.3,6.7C289.7,99.1,288,101.1,289.2,104.8z"/>
</g>
<path class="st0" d="M139.2,26.4c0,0-2.6,0.2-5.1,0c-2.4-0.2-5.5-0.6-6.3-1.2c-0.8-0.6-3.7,0.6-1.6-5.3s0.2-8.7,2.5-9.7
	c2.3-1,1.3-2.2,5.6-2s3.5,1.4,9.3-1.6s7.1-10.6,7.5-3.7s-7.9,7.9-1,11.8s15.4,6.1,16.4,0.8s0.2-10.6,4.5-8.7s15.6,8.1,12,10.2
	c-3.7,2-8.8,1.2-7.7,6.1s4.9,7.5,1.1,9.3c-3.8,1.8,2.3,26.8,2.3,26.8s1.1,5.7-0.6,8.1c-1.7,2.4-6.1,6.3-5.1,9.3s2,6.9,2,6.9
	s5.1,5.5,4.5,6.3c-0.6,0.8-3.1,3.7-3.1,3.7l2.9,22.1c0,0-3.7,3.9-1.8,5.3s7.2,2.2,3,4.5c-4.2,2.2-9.2,1.8-6.7,5.3
	c2.5,3.5,4.5,6.3,4.9,7.3c0.4,1,0.7,2.8-0.8,6.7c-1.5,3.9-5,2.6-3.2,6.7c1.7,4.1,4.7,9.3,4.7,11.2c0,1.8-2.4,7.3,0.2,10.4
	c2.6,3,4.1,5.7,7.9,8.1c3.9,2.4,8.3,1.8,6.5,4.1s-5.5,6.1-7.1,6.1c-1.6,0-0.5,0.8-5.5,0.4s-13.8-4.5-16.2-0.4
	c-2.4,4.1,2,5.9-4.9,4.1s-14.2-2.8-17.5-2.8s-1.8-0.4-6.7-0.2c-4.9,0.2-11.2,9.7-10.7-1c0.5-10.7-7.4-12,3.3-11.4
	c10.7,0.6,14.3,1,13.7-0.8c-0.6-1.8-6.5-4.9-6.5-6.7c0-1.8,6.9-5.5,7.7-8.1s-7.3-8-7.3-8.9c0-0.9,2-2.3,1.2-2.9
	c-0.8-0.6-6.7-10.8-4.9-11.2s13-4.9,13-4.9s-7.7-4.5-8.3-4.3c-0.6,0.2-0.1-3,1.6-6.9s4.5-13.6,4.1-15c-0.4-1.4-1.1-4.5-2.4-5.5
	c-1.3-1-8.4-2.1-8-4.7c0.4-2.6,5.8-10.3,6.9-12.3c1.1-2,3.6-1.8,1.1-5.1c-2.5-3.2-0.9-7.7-2.9-13c-2-5.3-9.3-10.9,0.6-15
	c9.9-4.1,5.5-4.3,6.5-6c1-1.7,1.2-5.4,1.2-8.2C146.1,37.3,139.2,26.4,139.2,26.4z"/>
<path class="st1" d="M142.9,11c0,0,0.4-0.8,2.2-1.2s2.1-2.1,4.3-1.4c2.2,0.8,5.9,3.2,10.9,0.4s3.7-3.5,6.1-3.5s5.9,1.8,7.1,3.9
	s1.2,4.1,0,6.3s0.4,8.7,2.9,9.9s1,0.1,1.6,4.3s5.4,5.4,4.4,7.2c-1,1.8-6.6,9-6.3,9.9c0.3,0.9,5.1,0,5.1,2.4s-2.2,5.9-4.8,11
	c-2.5,5.1-0.3,9.7,2.1,11.4s-0.2,5.5-0.6,6.5c-0.4,1,3,1.2,2.2,4.9c-0.8,3.7-3.8,24.4-3.8,24.4l4.4,4.1c0,0,2.6,1.4-1.4,4.1
	c-4.1,2.6-5.8,5.1-2.9,7.7c2.9,2.6,5,2,4,3.9c-1,1.8-6.7,8.9-6.3,9.5c0.4,0.6-0.1,1.7,2.3,3.2s6.1,3.5,6.1,5.1
	c0.1,1.6-6.1,18.5-6.1,18.5s-2.7,0.3,2.1,3.2c4.9,2.9,6.1,3.1,6.5,6.2c0.4,3-1.8,7.3-1.4,8.1c0.4,0.8,9.8,2.3,9.8,2.3
	s3.2-1.2,0.5,1.7c-2.7,3-0.9,0.6-6.7,3.5c-5.9,3-14.4,3.4-15,3.4c-0.6,0-4.5,0.6-11,2s-8.9,0.6-14.6,1.4c-5.7,0.8-12.2,1.7-12.4,0.8
	c-0.2-0.8-2.4-4.5-4.7-7.5c-2.2-3-15.5-9.8-3-11.4c12.5-1.6,12.1,0.2,14.1-1.8c2-2,7.9-6.1,3-8.1c-4.9-2-8.9-4.8-8.9-6.1
	c0-1.2,5.3-5.6,6.7-6s4-5.7,1.6-6.3c-2.4-0.6-10.8-1.6-10.1-4.8c0.7-3.2,2.6-12.3,4.3-13.6s9.9-2.1,7.4-5.9
	c-2.4-3.9-7.7-10.4-9.3-14c-1.6-3.7-15.2-9-7.7-12.4c7.5-3.3,16.9-6.7,16.9-6.7s0.4-1.2-1.2-3.9c-1.6-2.6-6.9-10.5-6.9-10.5
	s-3.1-0.3,0.6-1.5c3.7-1.2,8.7-3.7,8.7-3.7l-6.9-9.9c0,0-3.6-1.3-2.4-4.9c1.2-3.6,4.1-11.2,6.5-12s4.9,1.4,0-1.8
	c-4.9-3.2-11.6-8.7-10.8-10.4c0.8-1.6,10.9-6.5,9.7-7.1c-1.2-0.6-8.5-1.7-9.1-1.7c-0.6,0-5.4-9.2-5.4-9.2s-2.7-1.2,1.5-2.7
	c4.2-1.6,6.8-3.9,7.4-3.8C136.7,8.4,142.9,11,142.9,11z"/>
<path class="st0" d="M10.6,60.6c0,0-3.8,0.3-3.8,0c0-0.3-2-0.8-2.3-2.4c-0.3-1.6-5.1-4.1-3.8-4.9c1.4-0.8,3.3-1.8,4.8-1.8
	s2.8-0.2,5.8,0s1.5,1.4,5,0.6c3.5-0.8,9.3-3.4,9.3-3.4s4.9-0.8,5.6,0c0.8,0.8,2.4,5.8,2.4,5.8s5.6-0.6,6.9,0c1.2,0.6,0.9,2.5,0,4.5
	c-0.9,2,1.5,4.4,2,5.9c0.5,1.5-9.4-3.6-2.9,3.5s3.7,7.4,7.7,9.1c4,1.7,3,2.9,6.3,2s8.7,0.6,5.3-4.1s-7.5-5.5-3-7.2
	c4.4-1.6,3.7-0.5,4.8-2.2c1.1-1.7-1-1.5-1.6-6c-0.6-4.6-6.4-4.9-0.2-4.9s4.7,2.9,7.2,0c2.4-2.9-2.9-4.2,2.4-2.9s5,1.1,7.6,2
	c2.6,0.9,3,2.4,5.8-0.9c2.7-3.4,3-4,3.5-3.8c0.5,0.2,0.9,4.5,2.7,5.6s1.2,1.1,4.9,1.2c3.6,0.1,3.6-0.7,3.6,0.1c0,0.8,3.9,0.2,0,3.1
	c-3.9,2.9-6.2,3.7-6.5,5.2c-0.3,1.5,0.2,3.4,0.5,3.8s-9,5-9,5s-9,5.2-10.2,5.3c-1.2,0.2-5-3.5-2.7,0.9c2.3,4.4,3.2,7.2,3.3,7
	c0.1-0.1,5.2-1.5,1.1,1.6c-4.1,3.1-7.9,5.6-5.9,6.1c2,0.5,6.1,1.2,4.3,1.7s-7.6,2.2-8,4.3c-0.4,2.1,0.2,2.9,3.7,4.1s-0.3,8,2.4,10.5
	c2.8,2.5,6.9,6.9,7.2,7.3c0.3,0.5-1.3,0.2,0.2,2.6c1.5,2.4,3,8.5,4.1,8.4c1.1-0.1,0.2,0,2.4,0c2.3,0,3.5,0.8,3.7,2.4
	c0.2,1.7-0.6,2.3,0.9,3.8c1.5,1.5,2.3,1.5,5,2.1c2.7,0.6,2.2-0.2,3.6,1.1c1.4,1.2-4.1,7.3-4.2,7.8c-0.2,0.5-2.4,0.8-3.8,0
	s-6.2-1.7-9-1.5c-2.7,0.2-0.2-0.3-4.9,0.3c-4.7,0.6-2-0.9-8.7-0.9s-6.7-0.3-7.5,0c-0.8,0.3-5-0.2,1.4-2.6c6.4-2.4,9.9-3,9.4-4
	s-3.4-0.5-3.4-0.5l-3.8-1.1c0,0-3.6,0.6-2.9-0.6c0.8-1.2,1.7-3,2-4.7s0.3-5.6,0.3-5.6s1.8-3.2-1.4-3.4c-3.2-0.2-5.9-1.2-7.4-0.6
	s-5.6,5.9-4.4,2.7c1.2-3.2,1.7-6.5-0.2-6.2c-1.8,0.3-8.2,2.5-6.2,5.9c2,3.5,1.8,2.3,2.6,4.6c0.8,2.3,0.1,3.2-2.1,4.1
	c-2.3,0.9-4.1-0.4-3.8,1.2c0.3,1.6,0.6,2.4,0.8,4.7c0.2,2.3-3.7,1.3,0.2,2.3c3.9,1,7.7-0.5,4.5,1c-3.2,1.5-7.1,1.8-10.3,1.8
	s-3.5-1.3-7.6,0s-6.2,2.3-8.1,2.5c-1.8,0.2-0.2,0.6-4.4-0.9s-9.7-1.1-9.7-0.9s-6.5-0.3-2.1-2.7s3.4-2.7,8.1-3.2
	c4.7-0.5,3-0.5,7.6-1.2s9.9,1.2,5-2.1c-4.9-3.4-7.3-3.8-6.4-4.4c0.9-0.6,1.4-0.3,3.8-2s0.5-3.8,0.3-5.6c-0.2-1.8,0.9-2,2.6-4
	c1.7-2,1.5-3,2.4-4.3c0.9-1.2,5.2,0.2,2.3-2s-7.9-3-5.8-4.3s2-1.1,4.7-2.6c2.7-1.5,3.5-1.5,5-3.2c1.5-1.7,1.5-1.7,3.5-2.7
	c2-1.1,5.2-5.2,5.2-5.2s-5.9,0.3-6.7-0.3C33,98.1,30.8,97,30.8,94s1.1-5.9,1.1-5.9s0.3-2.3-4-2.5c-4.3-0.2-5.9,0.4-5.8-2.3
	s0-4.4-0.2-5.5c-0.2-1.1,0.9-1.7-0.5-3.7c-1.4-2-2.6-2.9-4.3-4.3s-4.7-3.4-3.7-5.6s2-1.7,1.1-2.3C13.8,61.2,10.6,60.6,10.6,60.6z"/>
<path class="st1" d="M25.9,50.8c0,0,2.8-0.6,5.4-2c2.5-1.4,8.4,2,8.4,2s1,1.8,2.2,3c1.2,1.2-1.9,3.6-1.9,3.6l-1.6,2.7
	c0,0,2.4,2.7,4.1,4.9c1.6,2.2,3,1.4,3.5,2.6c0.4,1.2-0.8,9.6,0,9.4s4.6,0.2,8,0c3.4-0.2,9,2.9,5-1.5s-11.6-1.6-4.9-5.5
	c6.6-3.9,10.3-3.8,9.4-5.3c-1-1.5-5.1-4.9-3.1-6.3c2.1-1.4,4.1-2,4.3-3.2s-2.2-3.3,0-3.3s8.3,3.3,10.2,3.3s1.4,0.3,4.3,0.2
	s6.6-0.9,8.1-1.4s10.8,1.7,9.6,2.5c-1.2,0.9-11.6,9.4-11.6,9.4s7.8-0.7,1.3,3.8c-6.5,4.6-11,4.5-12.6,9.1s-4.3,3.2-1.6,4.7
	c2.6,1.4,3.9-0.1,2.6,1.4c-1.3,1.6-4.6,4.9-5.7,6.6c-1.1,1.7,0.8,3.6,0.8,3.6l-2.7,9.5c0,0,0.2,5,0.8,5.9c0.6,0.9,6-2,4.6,1.6
	s-3.2,6.7-0.8,6.9c2.4,0.2,2.4-1.2,4.3,0s2.2,0.9,1.8,3.9s-0.8,4.9,0.4,6.9c1.2,2,3.1,3.2,5.2,3.6c2.1,0.5,4.3-0.8,6.5,1.3
	c2.2,2,3.9,2.6,4.5,4.1c0.6,1.4,0.8,3.4,2.2,4.1c1.4,0.8,1.4,7.1,0,7.5c-1.4,0.4-6.7,2.6-8.5,2.8c-1.8,0.2-3.1,4-6.5,0
	c-3.4-4-6.7-5.5-7.5-5.5c-0.8,0-1.8,0-3,0s-4.1-2.6-6.5-3.1c-2.4-0.4-1.5,5.1-2.4-0.4c-1-5.5,3.4-10.4-0.4-10.5s-6.5-1-6.5-1
	s1.8-0.9-2.4-2.6s-5.6-3.5-6.3-2.4s-4,6.4-4.4,7.1c-0.5,0.7,3.3,0.1-2.2,2.6s-7.9,3.7-5.7,4.5c2.2,0.8,6.3,1.5,8.7,2.4
	c2.4,1,6.7,1.4,4.5,2.2c-2.2,0.8-3.3,1.5-8.7,1.2c-5.5-0.2-6.5,0-12.3,0s-7.5,3.4-10.4,2.3c-2.9-1.1-9.6,2.3-8.4-4
	c1.2-6.3-3.1-7.9,3.2-9.1s4.9-0.6,7.1-2.4s-5.5,0.6,0.6-5.1s7.7-5.7,9.1-6.9c1.4-1.2-1.9-6.2,0.4-7.1c2.3-0.9,9.1-3.9,9.1-3.9
	s-11.7-0.7-5.5-4.8s5.4-4.3,5.1-7.1c-0.2-2.8-2.1-1.4-3.6-5.7c-1.5-4.3,2-6.1-2.3-8.4c-4.3-2.3-6.6-3.2-8.8-4.9
	c-2.2-1.6-7.2-2.3-6-6.7s8.9-6.3,5.7-7.5c-3.2-1.2-5.2,1-8.2-2.5s-1.5-2.5-7.2-6.6s-9.1-7.3-3.5-7.3s7.1,2.4,9.9,3s5.3,0.9,7.7,2.1
	S25.9,50.8,25.9,50.8z"/>
<g>
	<defs>
		<path id="SVGID_1_" d="M96.7,56.6v0.8c0,0.7-0.6,1.3-1.4,1.3h-4.9c-0.5,0-0.9,0.2-1.2,0.7l-26.2,42c-0.3,0.4-0.3,1,0,1.4
			l25.5,40.9c0.3,0.4,0.7,0.6,1.2,0.6h5.6c0.8,0,1.4,0.6,1.4,1.3v0.8c0,0.7-0.6,1.3-1.4,1.3h-4.2H66.9h-4.6c-0.8,0-1.4-0.6-1.4-1.3
			v-0.8c0-0.7,0.6-1.3,1.4-1.3c1.1,0,1.7-1.2,1.2-2l-11.8-18.9c-0.5-0.9-1.8-0.9-2.3,0l-11.8,18.9c-0.6,0.9,0.1,2,1.2,2h0
			c0.8,0,1.4,0.6,1.4,1.3v0.8c0,0.7-0.6,1.3-1.4,1.3h-4.6H9.7H5.6c-0.8,0-1.4-0.6-1.4-1.3v-0.8c0-0.7,0.6-1.3,1.4-1.3h5.6
			c0.5,0,0.9-0.2,1.2-0.7l25.5-40.9c0.3-0.4,0.3-1,0-1.4l-26.2-42c-0.3-0.4-0.7-0.7-1.2-0.7H5.6c-0.8,0-1.4-0.6-1.4-1.3v-0.8
			c0-0.7,0.6-1.3,1.4-1.3h3.5h24.3h5.3c0.8,0,1.4,0.6,1.4,1.3v0.8c0,0.7-0.6,1.3-1.4,1.3H38c-1.1,0-1.7,1.2-1.2,2l12.5,19.9
			c0.5,0.9,1.8,0.9,2.3,0l12.5-19.9c0.6-0.9-0.1-2-1.2-2h-0.7c-0.8,0-1.4-0.6-1.4-1.3v-0.8c0-0.7,0.6-1.3,1.4-1.3h5.3h24.3h3.5
			C96.1,55.3,96.7,55.9,96.7,56.6z M320.5,71.7v59.6c0,32.9-26.7,59.6-59.6,59.6h0c-32.9,0-59.6-26.7-59.6-59.6V71.7
			c0-32.9,26.7-59.6,59.6-59.6h0C293.8,12.1,320.5,38.8,320.5,71.7z M290.7,71.7c0-16.5-13.4-29.8-29.8-29.8h0
			c-16.5,0-29.8,13.4-29.8,29.8v59.6c0,16.5,13.4,29.8,29.8,29.8h0c16.5,0,29.8-13.4,29.8-29.8V71.7z M176.5,24V12.1h-0.6h-35.2h-6
			c-3.3,0-6,2.7-6,6v6h11.9v155.1h-6c-3.3,0-6,2.7-6,6v6h11.9h35.8h6c3.3,0,6-2.7,6-6v-6h-11.9V24z"/>
	</defs>
	<clipPath id="SVGID_00000127756130733246482430000010823533422109733540_">
		<use xlink:href="#SVGID_1_"  style="overflow:visible;"/>
	</clipPath>
	
		<g transform="matrix(1 0 0 1 0 9.536743e-07)" style="clip-path:url(#SVGID_00000127756130733246482430000010823533422109733540_);">
		
			<image style="overflow:visible;" width="600" height="338" xlink:href="fire.webp"  transform="matrix(0.5273 0 0 0.5294 4.1772 12.1066)">
		</image>
	</g>
</g>
</svg>
