<?xml version="1.0" encoding="utf-8"?>
<!-- Generator: Adobe Illustrator 26.0.1, SVG Export Plug-In . SVG Version: 6.00 Build 0)  -->
<svg version="1.1" id="Слой_1" xmlns="http://www.w3.org/2000/svg" xmlns:xlink="http://www.w3.org/1999/xlink" x="0px" y="0px"
	 viewBox="0 0 150 150" style="enable-background:new 0 0 150 150;" xml:space="preserve">
<path d="M146.2,10.6c-2.5-5-7.5-8.1-13.2-8.1H17c-5.6,0-10.6,3.1-13.2,8.1c-2.4,5-1.6,10.8,2,15l40.5,47.3l0.6,0.7v0.9v27
	c0,7.2,2.9,14.1,8.3,19.3l23.1,22.5c2.8,2.7,6.4,4.2,10.3,4.2c8,0,14.5-6.3,14.5-14.1V74.6v-0.9l0.6-0.7l40.4-47.4
	C147.7,21.3,148.5,15.6,146.2,10.6z M137.5,20.2L137.5,20.2L137.5,20.2L96.1,68.5c-1.1,1.4-1.8,3.1-1.8,4.8v60.1
	c0,3.5-3,5.7-5.8,5.7c-1.4,0-2.8-0.6-3.9-1.5l-0.1,0l0,0L61.4,115c-3.6-3.5-5.7-8.3-5.7-13.3V73.3c0-1.8-0.6-3.5-1.8-4.7L12.6,20.2
	c-1.4-1.6-1.8-4-0.9-6c0.9-2,3-3.4,5.3-3.4h116c2.3,0,4.4,1.3,5.3,3.4C139.2,16.2,138.9,18.4,137.5,20.2z"/>
</svg>
