<?xml version="1.0" encoding="utf-8"?>
<!-- Generator: Adobe Illustrator 26.0.1, SVG Export Plug-In . SVG Version: 6.00 Build 0)  -->
<svg version="1.1" id="Слой_1" xmlns="http://www.w3.org/2000/svg" xmlns:xlink="http://www.w3.org/1999/xlink" x="0px" y="0px"
	 viewBox="0 0 150 150" xml:space="preserve">
<path class="st0" d="M148.4,9.5C145.5,3.7,139.6,0,133,0H17C10.4,0,4.5,3.7,1.6,9.5C-1.2,15.4-0.3,22.2,4,27.2l40.5,47.3v27
	c0,8,3.2,15.4,9,21.1l23.1,22.5c3.2,3.1,7.5,4.9,12,4.9c9.4,0,17-7.4,17-16.6V74.6L146,27.2C150.3,22.2,151.2,15.4,148.4,9.5z
	 M55.8,66.9L14.5,18.6c-0.8-0.9-1-2.2-0.5-3.3c0.4-0.9,1.4-1.9,3-1.9H133c1.6,0,2.6,1,3,1.9c0.5,1.1,0.3,2.3-0.5,3.3L94.2,66.9
	c-1.5,1.8-2.4,4.1-2.4,6.4v60.1c0,2-1.7,3.2-3.3,3.2c-0.6,0-1.5-0.2-2.3-0.9l-23.1-22.5c-3.2-3.1-4.9-7.2-4.9-11.5V73.3
	C58.2,71,57.4,68.7,55.8,66.9z"/>
</svg>
