<?xml version="1.0" encoding="utf-8"?>
<!-- Generator: Adobe Illustrator 26.0.1, SVG Export Plug-In . SVG Version: 6.00 Build 0)  -->
<svg version="1.1" id="Слой_1" xmlns="http://www.w3.org/2000/svg" xmlns:xlink="http://www.w3.org/1999/xlink" x="0px" y="0px"
	 viewBox="0 0 145 150" xml:space="preserve">
<path d="M123.2,29h-21.8v-7.3c0-12-9.8-21.8-21.8-21.8H65.2c-12,0-21.8,9.8-21.8,21.8v36.3H21.8C9.8,58.1,0,67.8,0,79.8v48.4
	c0,12,9.8,21.8,21.8,21.8h24.2h9.7h33.8h9.7h24.2c12,0,21.8-9.8,21.8-21.8V50.8C145,38.8,135.2,29,123.2,29z M101.5,43.5h21.8
	c4,0,7.2,3.3,7.2,7.3v77.4c0,4-3.3,7.3-7.2,7.3h-21.8V43.5z M58,60.5V21.8c0-4,3.3-7.3,7.2-7.3h14.5c4,0,7.2,3.3,7.2,7.3v9.7v104H58
	V60.5z M14.5,79.8c0-4,3.3-7.3,7.2-7.3h21.8v62.9H21.8c-4,0-7.2-3.3-7.2-7.3V79.8z"/>
</svg>
