<?xml version="1.0" encoding="utf-8"?>
<!-- Generator: Adobe Illustrator 26.0.1, SVG Export Plug-In . SVG Version: 6.00 Build 0)  -->
<svg version="1.1" id="Слой_1" xmlns="http://www.w3.org/2000/svg" xmlns:xlink="http://www.w3.org/1999/xlink" x="0px" y="0px"
	 viewBox="0 0 145 150" style="enable-background:new 0 0 145 150;" xml:space="preserve">
<path d="M123.2,31.5h-21.8h-2.5V29v-7.3c0-10.6-8.7-19.3-19.3-19.3H65.2c-10.6,0-19.3,8.7-19.3,19.3V58v2.5h-2.5H21.8
	C11.2,60.6,2.5,69.2,2.5,79.8v48.4c0,10.6,8.7,19.3,19.3,19.3H46h9.7h33.8h9.7h24.2c10.6,0,19.3-8.7,19.3-19.3V50.8
	C142.5,40.2,133.8,31.5,123.2,31.5z M46,72.5v62.9v2.5h-2.5H21.8c-5.3,0-9.7-4.4-9.7-9.8V82.3H12v-2.5c0-5.4,4.4-9.8,9.7-9.8h21.8
	H46V72.5z M89.4,31.5v104v2.5h-2.5H58h-2.5v-2.5v-75V21.8c0-5.4,4.4-9.8,9.7-9.8h14.5c5.3,0,9.7,4.4,9.7,9.8V31.5z M133,128.2
	c0,5.4-4.4,9.8-9.7,9.8h-21.8H99v-2.5v-92V41h2.5h21.8c5.3,0,9.7,4.4,9.7,9.8V128.2z"/>
</svg>
