<?xml version="1.0" encoding="utf-8"?>
<!-- Generator: Adobe Illustrator 26.0.1, SVG Export Plug-In . SVG Version: 6.00 Build 0)  -->
<svg version="1.1" id="Слой_1" xmlns="http://www.w3.org/2000/svg" xmlns:xlink="http://www.w3.org/1999/xlink" x="0px" y="0px"
	 viewBox="0 0 150 180" xml:space="preserve">
<g>
	<path d="M147.2,116.9l-6.7-6.7l-37.3,37.4V9.5c0-5.2-4.2-9.5-9.4-9.5h-9.4v170.5c0,8.4,10.2,12.7,16.1,6.7l46.7-46.9
		C150.9,126.6,150.9,120.6,147.2,116.9z"/>
	<path d="M49.5,2.8L2.8,49.7c-3.7,3.7-3.7,9.7,0,13.4l6.7,6.7l37.3-37.4l0,138.2c0,5.2,4.2,9.5,9.4,9.5h9.4l0-170.5
		C65.6,1.1,55.4-3.2,49.5,2.8z"/>
</g>
</svg>
