<?xml version="1.0" encoding="utf-8"?>
<!-- Generator: Adobe Illustrator 26.0.1, SVG Export Plug-In . SVG Version: 6.00 Build 0)  -->
<svg version="1.1" id="Слой_1" xmlns="http://www.w3.org/2000/svg" xmlns:xlink="http://www.w3.org/1999/xlink" x="0px" y="0px"
	 viewBox="0 0 30 30" style="enable-background:new 0 0 30 30;" xml:space="preserve">
<style type="text/css">
	.st0{fill-rule:evenodd;clip-rule:evenodd;}
</style>
<path class="st0" d="M28.7,10.4c-1-4.4-4.5-7.9-8.9-8.9c-3.1-0.7-6.3-0.7-9.3,0C6,2.5,2.5,6,1.5,10.4c-0.7,3.1-0.7,6.3,0,9.3
	c1,4.4,4.5,7.9,8.9,8.9c3.1,0.7,6.3,0.7,9.3,0c4.4-1,7.9-4.5,8.9-8.9C29.4,16.6,29.4,13.4,28.7,10.4z M16.2,20.3
	c0,0.6-0.5,1.1-1.1,1.1c-0.6,0-1.1-0.5-1.1-1.1v-6c0-0.6,0.5-1.1,1.1-1.1c0.6,0,1.1,0.5,1.1,1.1V20.3z M15.1,12
	c-0.8,0-1.5-0.7-1.5-1.5S14.2,9,15.1,9c0.8,0,1.5,0.7,1.5,1.5S15.9,12,15.1,12z"/>
</svg>
